<svg xmlns="http://www.w3.org/2000/svg" width="178.736" height="185.655" viewBox="0 0 178.736 185.655">
  <g id="Awareness" transform="translate(-16930.814 11480.223)">
    <g id="Group_419" data-name="Group 419" transform="translate(16930.814 -11478.516)">
      <path id="Path_1048" data-name="Path 1048" d="M309.111,439c-2.21-8.935-9.462-11.7-15.2-29.041a67.464,67.464,0,0,1-2.667-10.195c-1.129-9.136,1.633-15.4-.289-26.766-2.878-17.022-14.867-37.232-31.246-44.678-28.668-13.034-72.848,12.093-92.259,44.678-16.764,28.142-19.179,68.771,4.645,98.495,19.851,24.768,57.156,41.008,86.559,30.665,15.478-5.444,27.13-13.5,33.568-20.917C302.152,469.8,312.467,452.568,309.111,439Z" transform="translate(-151.586 -324.806)" fill="none" stroke="#2a9d8f" stroke-miterlimit="10" stroke-width="3"/>
      <path id="Path_1049" data-name="Path 1049" d="M149.256,398.022c2.21,8.935,9.462,11.7,15.2,29.041a67.451,67.451,0,0,1,2.667,10.195c1.129,9.136-1.633,15.4.289,26.766,2.878,17.022,14.867,37.231,31.246,44.678,28.668,13.034,72.848-12.093,92.259-44.678,16.764-28.142,19.179-68.771-4.645-98.495-19.851-24.768-57.156-41.008-86.559-30.666-15.478,5.444-27.13,13.5-33.568,20.918C156.216,367.215,145.9,384.45,149.256,398.022Z" transform="translate(-148.609 -328.264)" fill="#264653"/>
    </g>
    <text id="Awareness_of_time" data-name="Awareness 
of time" transform="translate(17014.549 -11399.109)" fill="#fff" font-size="20" font-family="Roboto-Black, Roboto" font-weight="800"><tspan x="-52.271" y="0">Awareness </tspan><tspan x="-31.968" y="26">of time</tspan></text>
    <g id="Ellipse_348" data-name="Ellipse 348" transform="translate(17049.551 -11470.516)" fill="#2a9d8f" stroke="#fff" stroke-width="4">
      <circle cx="30" cy="30" r="30" stroke="none"/>
      <circle cx="30" cy="30" r="28" fill="none"/>
    </g>
    <path id="Icon_awesome-clock" data-name="Icon awesome-clock" d="M18,.563A17.438,17.438,0,1,0,35.438,18,17.434,17.434,0,0,0,18,.563Zm4.015,24.616-6.2-4.507a.849.849,0,0,1-.345-.682V8.156a.846.846,0,0,1,.844-.844h3.375a.846.846,0,0,1,.844.844v9.682L25,21.087a.843.843,0,0,1,.183,1.181L23.2,25A.85.85,0,0,1,22.015,25.179Z" transform="translate(17061.551 -11458.516)" fill="#fff"/>
  </g>
</svg>
