<svg xmlns="http://www.w3.org/2000/svg" width="52.031" height="52.574" viewBox="0 0 52.031 52.574">
  <path id="ClockIcon" d="M26.578.563A26.148,26.148,0,0,0,.563,26.85a26.017,26.017,0,1,0,52.03,0A26.148,26.148,0,0,0,26.578.563Zm5.99,37.109-9.252-6.794a1.285,1.285,0,0,1-.514-1.028V12.01a1.269,1.269,0,0,1,1.259-1.272H29.1a1.269,1.269,0,0,1,1.259,1.272v14.6l6.661,4.9a1.28,1.28,0,0,1,.273,1.781L34.33,37.4A1.259,1.259,0,0,1,32.567,37.672Z" transform="translate(-0.563 -0.563)" fill="#264653"/>
</svg>
