<svg xmlns="http://www.w3.org/2000/svg" width="270.047" height="277.794" viewBox="0 0 270.047 277.794">
  <g id="Confident" transform="translate(-16731.369 11285.395)">
    <g id="Group_421" data-name="Group 421" transform="translate(16017.014 -13617.447)">
      <g id="Group_314" data-name="Group 314" transform="translate(969.9 2060.317) rotate(41)">
        <path id="Path_1078" data-name="Path 1078" d="M116.831,383.768c-13.939,22.149-27.646,43.927-20.26,68.273,7.484,24.672,32.589,38.665,52.177,42.74,26.488,5.511,55.664-4.456,71.881-23.035,17.443-19.982,12.239-41.156,33.027-53.009,12.975-7.4,19.982-1.988,27.754-9.436,14.687-14.076,10.532-53.4-10.546-74.379-31.792-31.637-89.235-8.739-94.917-6.384C142.993,342.2,126.589,368.263,116.831,383.768Z" transform="translate(-10.855 -13.789)" fill="none" stroke="#2a9d8f" stroke-miterlimit="10" stroke-width="3"/>
        <path id="Path_1079" data-name="Path 1079" d="M252.3,409.07c14.214-22.585,28.19-44.792,20.659-69.618-7.632-25.158-33.231-39.427-53.2-43.582-27.009-5.619-56.76,4.544-73.3,23.489-17.786,20.376-12.48,41.966-33.677,54.053-13.231,7.544-20.376,2.028-28.3,9.622-14.977,14.353-10.74,54.455,10.754,75.844,32.418,32.26,90.992,8.911,96.786,6.509C225.624,451.457,242.35,424.881,252.3,409.07Z" transform="translate(0)" fill="#264653"/>
      </g>
      <text id="Confident_delivery_of_key_messages" data-name="Confident delivery 
of key messages" transform="translate(848.986 2464.865)" fill="#fff" font-size="20" font-family="Roboto-Black, Roboto" font-weight="800"><tspan x="-85.444" y="0">Confident delivery </tspan><tspan x="-76.24" y="26">of key messages</tspan></text>
      <g id="Ellipse_345" data-name="Ellipse 345" transform="translate(915.535 2392.479)" fill="#2a9d8f" stroke="#fff" stroke-width="4">
        <circle cx="30" cy="30" r="30" stroke="none"/>
        <circle cx="30" cy="30" r="28" fill="none"/>
      </g>
      <path id="Icon_awesome-key" data-name="Icon awesome-key" d="M31.174,10.716A10.722,10.722,0,0,1,18.459,21.246L17,22.89a1.461,1.461,0,0,1-1.092.49H13.639v2.435a1.461,1.461,0,0,1-1.461,1.461H9.742v2.435a1.461,1.461,0,0,1-1.461,1.461H1.461A1.461,1.461,0,0,1,0,29.713V24.96a1.462,1.462,0,0,1,.428-1.033l9.852-9.852a10.717,10.717,0,1,1,20.895-3.359ZM20.458,7.794a2.923,2.923,0,1,0,2.923-2.923A2.923,2.923,0,0,0,20.458,7.794Z" transform="translate(957.215 2403.785) rotate(77)" fill="#fff"/>
    </g>
  </g>
</svg>
