<svg xmlns="http://www.w3.org/2000/svg" viewBox="0 0 122 122"><defs><style>.cls-1{fill:#2a9d8f;}.cls-2{fill:#fff;}</style></defs><g id="Layer_2" data-name="Layer 2"><g id="Layer_1-2" data-name="Layer 1"><path class="cls-1" d="M122,61A61,61,0,1,1,60.94,0,61,61,0,0,1,122,61Z"/><path class="cls-2" d="M71.31,38.63A10.33,10.33,0,1,1,61,28.29,10.32,10.32,0,0,1,71.31,38.63Z"/><path class="cls-2" d="M74.79,84.87v5.9a3,3,0,0,1-3,3H50.17a3,3,0,0,1-3-3v-5.9a3,3,0,0,1,3-3h2.95V66.17H50.17a3,3,0,0,1-3-3v-5.9a3,3,0,0,1,3-3H65.93a2.93,2.93,0,0,1,2.94,2.94v24.6h3A3,3,0,0,1,74.79,84.87Z"/></g></g></svg>