<svg xmlns="http://www.w3.org/2000/svg" viewBox="0 0 93.87 87.84"><defs><style>.cls-1{fill:#213142;}.cls-2{fill:#fff;}</style></defs><g id="Layer_2" data-name="Layer 2"><g id="Layer_1-2" data-name="Layer 1"><g id="Group_92" data-name="Group 92"><ellipse id="Ellipse_9-2" data-name="Ellipse 9-2" class="cls-1" cx="46.93" cy="43.92" rx="46.93" ry="43.92"/><path id="Icon_awesome-clipboard-check" data-name="Icon awesome-clipboard-check" class="cls-2" d="M62.2,24.78H53.71a6.81,6.81,0,0,0-13.59,0H31.63a5,5,0,0,0-5.09,4.79V64.65a5,5,0,0,0,5.09,4.79H62.2a5,5,0,0,0,5.09-4.79V29.57A5,5,0,0,0,62.2,24.78ZM46.92,22.39a2.45,2.45,0,0,1,2.54,2.38h0a2.55,2.55,0,0,1-5.09,0,2.47,2.47,0,0,1,2.54-2.39Zm12.86,23.1L44.6,59.63a1.34,1.34,0,0,1-1.8,0L34,51.32A1.14,1.14,0,0,1,34,49.7l.08-.08,3-2.81a1.34,1.34,0,0,1,1.8,0l4.89,4.63L55,41a1.34,1.34,0,0,1,1.8,0l3,2.83a1.15,1.15,0,0,1,.06,1.62Z"/></g></g></g></svg>