<svg xmlns="http://www.w3.org/2000/svg" viewBox="0 0 93.87 87.84"><defs><style>.cls-1{fill:#213142;}.cls-2{fill:#fff;}</style></defs><g id="Layer_2" data-name="Layer 2"><g id="Layer_1-2" data-name="Layer 1"><g id="Group_96" data-name="Group 96"><g id="Group_87" data-name="Group 87"><ellipse id="Ellipse_21-2" data-name="Ellipse 21-2" class="cls-1" cx="46.93" cy="43.92" rx="46.93" ry="43.92"/><path id="Icon_awesome-theater-masks" data-name="Icon awesome-theater-masks" class="cls-2" d="M36,42.74a8,8,0,0,0-5.58,8,11.37,11.37,0,0,1,4.84-3.33ZM25.22,48.11,22.15,28.79a.54.54,0,0,1,0-.28,34.86,34.86,0,0,1,18.31-5.27l.47,0a8.94,8.94,0,0,1,5-2.8,41.13,41.13,0,0,1,5.54-.58A6.23,6.23,0,0,0,47.44,17a39.66,39.66,0,0,0-7-.61,40.53,40.53,0,0,0-21.33,6.14A7.4,7.4,0,0,0,16,30L19.11,49.3C20.49,58,32.32,64.59,38.92,64.59a8,8,0,0,0,1-.09,29.92,29.92,0,0,1-3.83-7.27c-4.61-1.4-10.27-5.55-10.84-9.12Zm9.45-14.79a4.77,4.77,0,0,0-.39-1.23,5.91,5.91,0,0,1-3.43,2A5.57,5.57,0,0,1,27,33.51a4.36,4.36,0,0,0,0,1.3,3.92,3.92,0,0,0,4.31,3.5l.18,0a4.27,4.27,0,0,0,3.14-5Zm40.05-3.94a40.15,40.15,0,0,0-28.28-5.53A6.8,6.8,0,0,0,41.2,29.7L38.13,49c-1.49,9.37,9.23,21.12,15.33,22.31s19.81-5.79,21.3-15.15l3.08-19.31a7.38,7.38,0,0,0-3.12-7.48ZM48.25,39.79a3.92,3.92,0,0,1,4.31-3.5l.18,0a4.27,4.27,0,0,1,3.14,5,4.41,4.41,0,0,1-.39,1.23,5.88,5.88,0,0,0-3.42-2,5.6,5.6,0,0,0-3.83.55,4.72,4.72,0,0,1,0-1.3Zm6.83,21.38C49.68,60.12,46,54.79,46.45,49a15.58,15.58,0,0,0,9.64,5.79A14.56,14.56,0,0,0,66.93,53C65.56,58.62,60.47,62.23,55.08,61.17ZM67.7,44.89a5.94,5.94,0,0,0-3.42-2,5.55,5.55,0,0,0-3.83.56,4.72,4.72,0,0,1,0-1.3,3.94,3.94,0,0,1,4.31-3.51l.18,0a4.28,4.28,0,0,1,3.14,5,4.52,4.52,0,0,1-.39,1.23Z"/></g></g></g></g></svg>