<svg xmlns="http://www.w3.org/2000/svg" viewBox="0 0 93.87 87.84"><defs><style>.cls-1{fill:#213142;}.cls-2{fill:#fff;}</style></defs><g id="Layer_2" data-name="Layer 2"><g id="Layer_1-2" data-name="Layer 1"><g id="Group_95" data-name="Group 95"><g id="Group_86" data-name="Group 86"><ellipse id="Ellipse_20-2" data-name="Ellipse 20-2" class="cls-1" cx="46.93" cy="43.92" rx="46.93" ry="43.92"/><path id="Icon_awesome-pencil-alt" data-name="Icon awesome-pencil-alt" class="cls-2" d="M72.63,33.35l-4.9,4.27a1.39,1.39,0,0,1-1.8,0L54.13,27.34A1,1,0,0,1,54,25.91a.93.93,0,0,1,.14-.14L59,21.49a5.67,5.67,0,0,1,7.22,0l6.38,5.57a4,4,0,0,1,.59,5.7A3.3,3.3,0,0,1,72.63,33.35Zm-22.7-3.92L22,53.76,19.78,65c-.31,1.52,1.21,2.83,2.95,2.57l12.9-2,27.9-24.33a1,1,0,0,0,.15-1.43.67.67,0,0,0-.15-.14L51.74,29.43a1.43,1.43,0,0,0-1.81,0Zm-17,22.25A1.18,1.18,0,0,1,32.74,50a.77.77,0,0,1,.18-.18L49.28,35.58a1.63,1.63,0,0,1,2.1,0,1.17,1.17,0,0,1,.17,1.65,1,1,0,0,1-.17.18L35,51.68a1.66,1.66,0,0,1-2.1,0Zm-3.84,7.79h5.1v3.36l-6.85,1.05L24,61l1.2-6h3.85Z"/></g></g></g></g></svg>