<svg xmlns="http://www.w3.org/2000/svg" viewBox="0 0 93.87 87.84"><defs><style>.cls-1{fill:#213142;}.cls-2{fill:#fff;}</style></defs><g id="Layer_2" data-name="Layer 2"><g id="Layer_1-2" data-name="Layer 1"><g id="Group_94" data-name="Group 94"><ellipse id="Ellipse_19-2" data-name="Ellipse 19-2" class="cls-1" cx="46.93" cy="43.92" rx="46.93" ry="43.92"/><path id="Icon_material-group" data-name="Icon material-group" class="cls-2" d="M57.91,40.6c4.55,0,8.2-4.45,8.2-10s-3.65-10-8.2-10-8.23,4.45-8.23,10S53.36,40.6,57.91,40.6ZM36,40.6c4.55,0,8.2-4.45,8.2-10s-3.65-10-8.2-10-8.24,4.45-8.24,10,3.69,10,8.24,10Zm0,6.64c-6.39,0-19.2,3.89-19.2,11.63v8.3H55.17v-8.3c0-7.74-12.81-11.63-19.21-11.63Zm21.95,0a26.2,26.2,0,0,0-2.66.17,14.85,14.85,0,0,1,5.4,11.46v8.3H77.11v-8.3C77.11,51.13,64.3,47.24,57.91,47.24Z"/></g></g></g></svg>