<svg xmlns="http://www.w3.org/2000/svg" width="191.423" height="185.459" viewBox="0 0 191.423 185.459">
  <g id="Group_421" data-name="Group 421" transform="translate(-297.201 -1485.541)">
    <g id="Group_279" data-name="Group 279" transform="translate(-299.878 -628)">
      <g id="Group_216" data-name="Group 216" transform="translate(598.581 2115.053)">
        <path id="Path_1046" data-name="Path 1046" d="M310.733,397.357c36.6-17.1,43.788-29.978,47.194-44.089,2.7-11.176,2.942-16.782.874-30.947-1.7-11.641-5.211-35.681-25.346-57.009-7.41-7.85-24.435-25.884-49.816-28.5-43.576-4.5-78.189,39.906-90.893,63.524a112.512,112.512,0,0,0-13.109,53.751c.216,15.8.471,34.448,14.857,47.235,13.769,12.238,31.086,15.319,38.552,15.314C252.656,416.615,266.912,417.827,310.733,397.357Z" transform="translate(-179.628 -236.49)" fill="none" stroke="#2a9d8f" stroke-miterlimit="10" stroke-width="3" style="isolation: isolate"/>
        <path id="Path_1047" data-name="Path 1047" d="M231.213,267c-35.556,16.65-42.534,29.191-45.843,42.932-2.621,10.883-2.858,16.341-.849,30.136,1.651,11.335,5.061,34.744,24.619,55.512,7.2,7.644,23.736,25.2,48.391,27.756,42.328,4.381,75.95-38.858,88.29-61.857a109.766,109.766,0,0,0,12.734-52.34c-.21-15.386-.457-33.545-14.432-46-13.374-11.916-30.2-14.918-37.448-14.912C287.627,248.243,273.779,247.063,231.213,267Z" transform="translate(-180.6 -239.695)" fill="#264653" style="isolation: isolate"/>
      </g>
      <text id="DID_YOU_KNOW" data-name="DID YOU
KNOW" transform="translate(688.869 2199.266)" fill="#fff" font-size="20" font-family="Roboto-Black, Roboto" font-weight="800"><tspan x="-38.125" y="0">DID YOU</tspan><tspan x="-29.014" y="26">KNOW</tspan></text>
      <g id="Ellipse_337" data-name="Ellipse 337" transform="translate(728.502 2133.148)" fill="#2a9d8f" stroke="#fff" stroke-width="4">
        <circle cx="30" cy="30" r="30" stroke="none"/>
        <circle cx="30" cy="30" r="28" fill="none"/>
      </g>
    </g>
    <path id="Icon_awesome-lightbulb" data-name="Icon awesome-lightbulb" d="M6.754,31.946a2.251,2.251,0,0,0,.377,1.244L8.333,35a2.249,2.249,0,0,0,1.873,1h4.339a2.249,2.249,0,0,0,1.873-1l1.2-1.806A2.249,2.249,0,0,0,18,31.946l0-2.7H6.751l0,2.7ZM0,12.375a12.306,12.306,0,0,0,3.063,8.141,20.206,20.206,0,0,1,3.671,6.43c0,.018,0,.037.008.055H18.008c0-.018,0-.036.008-.055a20.206,20.206,0,0,1,3.671-6.43A12.372,12.372,0,1,0,0,12.375ZM12.375,6.75A5.632,5.632,0,0,0,6.75,12.375a1.125,1.125,0,0,1-2.25,0A7.884,7.884,0,0,1,12.375,4.5a1.125,1.125,0,0,1,0,2.25Z" transform="translate(445.412 1519.148)" fill="#fff"/>
  </g>
</svg>
