<svg xmlns="http://www.w3.org/2000/svg" viewBox="0 0 122 122"><defs><style>.cls-1{fill:#71a068;}.cls-2{fill:#fff;}</style></defs><g id="Layer_2" data-name="Layer 2"><g id="Layer_1-2" data-name="Layer 1"><g id="Group_25-3" data-name="Group 25-3"><circle id="Ellipse_5-4" data-name="Ellipse 5-4" class="cls-1" cx="61" cy="61" r="61"/></g><path id="Icon_material-group" data-name="Icon material-group" class="cls-2" d="M75.4,56.57c6,0,10.76-5.93,10.76-13.29S81.38,30,75.4,30,64.6,35.93,64.6,43.28,69.43,56.57,75.4,56.57Zm-28.8,0c6,0,10.76-5.93,10.76-13.29S52.58,30,46.61,30s-10.8,5.93-10.8,13.28,4.82,13.29,10.8,13.29Zm0,8.86c-8.39,0-25.2,5.18-25.2,15.5V92H71.8V80.93c0-10.32-16.81-15.5-25.19-15.5Zm28.8,0a33.88,33.88,0,0,0-3.49.22A19.91,19.91,0,0,1,79,80.93V92h21.6V80.93c0-10.32-16.81-15.5-25.2-15.5Z"/></g></g></svg>