<svg xmlns="http://www.w3.org/2000/svg" viewBox="0 0 122 122"><defs><style>.cls-1{fill:#88939b;}.cls-2{fill:#fff;}</style></defs><g id="Layer_2" data-name="Layer 2"><g id="Layer_1-2" data-name="Layer 1"><circle id="Ellipse_5" data-name="Ellipse 5" class="cls-1" cx="61" cy="61" r="61"/><path id="Icon_awesome-clipboard-check-2" data-name="Icon awesome-clipboard-check-2" class="cls-2" d="M83.33,30.36H70.92c0-5.09-4.45-9.22-9.92-9.22s-9.93,4.13-9.93,9.22H38.67a7.2,7.2,0,0,0-7.45,6.91V87.94a7.2,7.2,0,0,0,7.45,6.91H83.33a7.2,7.2,0,0,0,7.45-6.91V37.27A7.2,7.2,0,0,0,83.33,30.36ZM61,26.9a3.58,3.58,0,0,1,3.72,3.45h0a3.73,3.73,0,0,1-7.44,0A3.59,3.59,0,0,1,61,26.9ZM79.8,60.27,57.62,80.69a2,2,0,0,1-2.64,0l-12.81-12a1.64,1.64,0,0,1-.11-2.32,1.59,1.59,0,0,1,.13-.13l4.4-4.06a2,2,0,0,1,2.63,0l7.14,6.68L72.8,53.72a2,2,0,0,1,2.64,0l4.37,4.09a1.65,1.65,0,0,1,.12,2.32l-.13.12Z"/></g></g></svg>