<svg xmlns="http://www.w3.org/2000/svg" viewBox="0 0 151.93 116.94"><defs><style>.cls-1{fill:#2a9d8f;}</style></defs><g id="Layer_2" data-name="Layer 2"><g id="Layer_1-2" data-name="Layer 1"><path id="Icon_awesome-quote-left" data-name="Icon awesome-quote-left" class="cls-1" d="M137.69,58.47H114V41.76c0-9.21,8.51-16.7,19-16.7h2.37c3.95,0,7.12-2.79,7.12-6.27V6.26c0-3.47-3.17-6.26-7.12-6.26h-2.37C106.71,0,85.46,18.69,85.46,41.76v62.65c0,6.92,6.38,12.53,14.24,12.53h38c7.86,0,14.24-5.61,14.24-12.53V71C151.93,64.08,145.55,58.47,137.69,58.47Zm-85.46,0H28.49V41.76c0-9.21,8.51-16.7,19-16.7h2.37c3.95,0,7.12-2.79,7.12-6.27V6.26C57,2.79,53.8,0,49.85,0H47.48C21.25,0,0,18.69,0,41.76v62.65c0,6.92,6.38,12.53,14.24,12.53h38c7.86,0,14.24-5.61,14.24-12.53V71C66.47,64.08,60.09,58.47,52.23,58.47Z"/></g></g></svg>