<svg xmlns="http://www.w3.org/2000/svg" viewBox="0 0 122 122"><defs><style>.cls-1{fill:#2a9d8f;}.cls-2{fill:#fff;}</style></defs><g id="Layer_2" data-name="Layer 2"><g id="Layer_1-2" data-name="Layer 1"><g id="Group_25-5" data-name="Group 25-5"><circle id="Ellipse_5-6" data-name="Ellipse 5-6" class="cls-1" cx="61" cy="61" r="61"/></g><path id="Icon_awesome-theater-masks" data-name="Icon awesome-theater-masks" class="cls-2" d="M46.07,59.31a11.49,11.49,0,0,0-7.58,11.53A15.58,15.58,0,0,1,45.07,66ZM31.43,67.07,27.24,39.13a.94.94,0,0,1,0-.41A45.55,45.55,0,0,1,52.2,31.09c.22,0,.43,0,.64,0a12.07,12.07,0,0,1,6.81-4,54.51,54.51,0,0,1,7.54-.83A8.49,8.49,0,0,0,61.69,22a52,52,0,0,0-9.49-.88,52.74,52.74,0,0,0-29,8.88c-3.19,2.09-4.9,6.44-4.24,10.82L23.11,68.8c1.88,12.53,18,22.11,27,22.11a9.83,9.83,0,0,0,1.32-.13,43.84,43.84,0,0,1-5.21-10.51c-6.28-2-14-8-14.77-13.2ZM44.29,45.68a6.52,6.52,0,0,0-.53-1.78,8,8,0,0,1-4.66,2.86,7.23,7.23,0,0,1-5.21-.8,7.39,7.39,0,0,0,0,1.88c.51,3.38,3.24,5.63,6.12,5S44.8,49.06,44.29,45.68ZM98.83,40a52.07,52.07,0,0,0-38.51-8c-3.6.68-6.48,4.09-7.13,8.46L49,68.38c-2,13.55,12.57,30.55,20.89,32.27s27-8.37,29-21.92l4.18-27.94c.66-4.37-1-8.73-4.24-10.82ZM62.79,55c.5-3.38,3.24-5.63,6.11-5s4.79,3.82,4.28,7.2A6.84,6.84,0,0,1,72.64,59,7.91,7.91,0,0,0,68,56.12a7.18,7.18,0,0,0-5.21.8A7,7,0,0,1,62.79,55ZM72.09,86c-7.35-1.52-12.34-9.22-11.75-17.57a21.08,21.08,0,0,0,13.13,8.37,18.9,18.9,0,0,0,14.76-2.58C86.36,82.27,79.43,87.5,72.09,86ZM89.27,62.42a8,8,0,0,0-4.66-2.85,7.19,7.19,0,0,0-5.21.8,7.39,7.39,0,0,1,0-1.88c.5-3.38,3.24-5.64,6.11-5s4.79,3.81,4.28,7.19a6.84,6.84,0,0,1-.54,1.77Z"/></g></g></svg>