<svg xmlns="http://www.w3.org/2000/svg" width="99.818" height="128.238" viewBox="0 0 99.818 128.238">
  <g id="Group_423" data-name="Group 423" transform="translate(-256.298 -311.926)">
    <g id="Group_275" data-name="Group 275" style="isolation: isolate">
      <path id="Path_1055" data-name="Path 1055" d="M273.335,430.264c3.423.439,4.845,1.316,5.714,4.574.5,2,.975,3.792,1.29,4.763H274.7c-.974,0-1.106-.314-1.737-3.2-.738-3.352-1.37-3.948-4.477-3.948-2.028,0-3.055,0-6.214.032.052,2.851.131,5.357.289,7.112H256.3c.026-3.415.079-6.705.079-11.749,0-4.982-.026-8.365-.079-11.749h13.983c5.766,0,8.821,2.35,8.821,7.143,0,4.1-1.685,6.266-5.767,6.924Zm-4.345-2.882c3.029,0,4.292-.971,4.292-2.976,0-2.35-1.316-2.946-4.529-2.914-1.264-.032-4.634,0-6.556.094,0,1.942,0,3.853.026,5.733C263.54,427.35,266.2,427.382,268.99,427.382Z" fill="#fff"/>
      <path id="Path_1056" data-name="Path 1056" d="M287.763,432.113c0,1.88,1.237,2.6,5.635,2.6,4.608,0,5.425-.689,5.425-1.848,0-1.222-.633-2.068-6.373-2.569-8.294-.784-10.559-3.134-10.559-7.489,0-4.448,3.212-7.268,11.086-7.268,8.453,0,11.3,2.193,11.3,6.8,0,.439-.026.878-.052,1.379-.632-.063-1.712-.094-2.818-.094s-2.212.031-2.87.094v-.626c0-1.473-.816-2.225-5.688-2.225-4.187,0-5.029.627-5.029,1.692,0,1,.5,1.786,6.635,2.412,7.61.846,10.217,2.883,10.217,7.614,0,4.762-3.028,7.582-11.217,7.582-8.611,0-11.718-2.381-11.718-6.83a11.032,11.032,0,0,1,.079-1.6,24.155,24.155,0,0,0,2.923.188c1.132,0,2.185-.032,3.028-.094Z" fill="#fff"/>
      <path id="Path_1057" data-name="Path 1057" d="M319.333,416.1c8.453,0,11.4,3.446,11.4,11.373,0,8.177-2.764,12.125-11.48,12.125h-11.9c.079-3.258.079-6.736.079-11.718s0-8.741-.079-11.78Zm5.371,11.5c0-4.637-1.685-5.827-5.529-5.827-2.028,0-3.9.031-5.714.125-.027,1.974-.053,4.167-.053,6.2,0,2.443,0,4.229.026,5.67,2.028.157,3.529.094,5.688.094C322.914,433.867,324.7,432.489,324.7,427.6Z" fill="#fff"/>
      <path id="Path_1058" data-name="Path 1058" d="M346.847,416.1c5.82,0,9.269,2.068,9.269,8.8,0,6.328-3.239,9.242-9.322,9.242-2.58,0-4.45.032-7.241-.094.026,2.162.1,4.042.184,5.546h-6.346c.079-3.384.106-6.736.106-11.749,0-4.982-.027-8.491-.106-11.749Zm3.344,8.9c0-2.507-1.29-3.353-4.424-3.353-1.29,0-4.476,0-6.267.063v6.767c1.238,0,3.608.032,6.162.032C349.033,428.51,350.191,427.507,350.191,425Z" fill="#fff"/>
    </g>
    <path id="Path_1059" data-name="Path 1059" d="M330.719,349.159c-9.439.15-18.845-1.4-28.248-2.84-5.025-.767-10.051-1.6-15.088-1.324-7.957.437-9.784,3.27-6.541,10.1-5.281-2.848-8.483-7.489-7.65-11.735.976-4.977,4.827-7.379,9.867-8.22,6.778-1.132,13.576.564,20.345,1.845,6.615,1.252,13.2,2.784,19.833,3.836,11.7,1.856,22.925,1.7,32.879-3.227V316.1a4.174,4.174,0,0,0-4.174-4.174h-91.47A4.174,4.174,0,0,0,256.3,316.1v90.577a4.175,4.175,0,0,0,4.174,4.175h.566a53.787,53.787,0,0,1-.139-15.382c1.679-12.021,8.465-20.348,19.956-25.328,5.788-2.509,11.994-3.837,17.98-5.786,2.821-.918,6.69-1.319,6.861-4.912.158-3.344-3.248-4.648-5.933-6.115-.8-.437-1.974-.507-2.32-2.185,9.978,1.028,19.321,3.2,27.188,9.137,4.981,3.758,4.149,8.083-1.785,10.4a40.955,40.955,0,0,1-7.446,1.786c-2.35.432-4.743.674-7.126.923-22.718,2.371-39.338,9.833-45.4,37.466h89.067a4.175,4.175,0,0,0,4.174-4.175V340.655C349.586,346.78,340.754,349,330.719,349.159Zm-19.585-31.34a9.937,9.937,0,0,1,13.838-1.687c4.477,3.322,5.242,9,1.777,13.191a10.134,10.134,0,0,1-13.885,1.734A9.084,9.084,0,0,1,311.134,317.819ZM343.425,403.6l-5.942-2.935-5.982,3.013,1.182-6.306-4.793-4.428,6.672-.963,3.021-5.749,2.942,5.71,6.659.875-4.854,4.492Z" fill="#fff"/>
  </g>
</svg>
