<svg xmlns="http://www.w3.org/2000/svg" viewBox="0 0 122 122"><defs><style>.cls-1{fill:#88939b;}.cls-2{fill:#fff;}</style></defs><g id="Layer_2" data-name="Layer 2"><g id="Layer_1-2" data-name="Layer 1"><g id="Group_25-4" data-name="Group 25-4"><circle id="Ellipse_5-5" data-name="Ellipse 5-5" class="cls-1" cx="61" cy="61" r="61"/></g><path id="Icon_awesome-pencil-alt" data-name="Icon awesome-pencil-alt" class="cls-2" d="M97.84,46.78l-7,5.75a2.12,2.12,0,0,1-2.59,0L71.33,38.69A1.31,1.31,0,0,1,71,36.85a1.28,1.28,0,0,1,.29-.28l7-5.75a8.52,8.52,0,0,1,10.34,0l9.15,7.5A5.23,5.23,0,0,1,99,45.65,4.85,4.85,0,0,1,97.84,46.78ZM65.29,41.51l-40,32.75L22.07,89.42c-.44,2,1.74,3.82,4.23,3.47l18.51-2.66,40-32.76a1.3,1.3,0,0,0,.28-1.83,1.28,1.28,0,0,0-.28-.29L67.9,41.51a2.13,2.13,0,0,0-2.6,0ZM40.91,71.46a1.54,1.54,0,0,1-.34-2.14,1.52,1.52,0,0,1,.34-.33L64.37,49.78a2.45,2.45,0,0,1,3,0,1.53,1.53,0,0,1,.34,2.13,1.82,1.82,0,0,1-.34.34L43.92,71.46a2.48,2.48,0,0,1-3,0ZM35.41,82h7.31v4.53L32.9,87.89,28.16,84,29.88,76h5.53Z"/></g></g></svg>