<svg xmlns="http://www.w3.org/2000/svg" width="405" height="417" viewBox="0 0 405 417">
  <g id="Group_143" data-name="Group 143" opacity="0.121">
    <path id="Polygon_14" data-name="Polygon 14" d="M22.5,0,45,39H0Z" transform="translate(0 168)" fill="#e76f51"/>
    <path id="Polygon_55" data-name="Polygon 55" d="M22.5,0,45,39H0Z" transform="translate(45 249) rotate(180)" fill="#e76f51"/>
    <path id="Polygon_35" data-name="Polygon 35" d="M22.5,0,45,39H0Z" transform="translate(180 84)" fill="#e76f51"/>
    <path id="Polygon_50" data-name="Polygon 50" d="M22.5,0,45,39H0Z" transform="translate(180)" fill="#e76f51"/>
    <path id="Polygon_20" data-name="Polygon 20" d="M22.5,0,45,39H0Z" transform="translate(135 126)" fill="#e76f51"/>
    <path id="Polygon_49" data-name="Polygon 49" d="M22.5,0,45,39H0Z" transform="translate(135 42)" fill="#e76f51"/>
    <path id="Polygon_25" data-name="Polygon 25" d="M22.5,0,45,39H0Z" transform="translate(135 210)" fill="#e76f51"/>
    <path id="Polygon_30" data-name="Polygon 30" d="M22.5,0,45,39H0Z" transform="translate(180 252)" fill="#e76f51"/>
    <path id="Polygon_51" data-name="Polygon 51" d="M22.5,0,45,39H0Z" transform="translate(225 333) rotate(180)" fill="#e76f51"/>
    <path id="Polygon_40" data-name="Polygon 40" d="M22.5,0,45,39H0Z" transform="translate(270 207) rotate(180)" fill="#e76f51"/>
    <path id="Polygon_46" data-name="Polygon 46" d="M22.5,0,45,39H0Z" transform="translate(360 168)" fill="#e76f51"/>
    <path id="Polygon_63" data-name="Polygon 63" d="M22.5,0,45,39H0Z" transform="translate(405 249) rotate(180)" fill="#e76f51"/>
    <path id="Polygon_15" data-name="Polygon 15" d="M22.5,0,45,39H0Z" transform="translate(180 168)" fill="#e76f51"/>
    <path id="Polygon_33" data-name="Polygon 33" d="M22.5,0,45,39H0Z" transform="translate(270 84)" fill="#e76f51"/>
    <path id="Polygon_18" data-name="Polygon 18" d="M22.5,0,45,39H0Z" transform="translate(225 126)" fill="#e76f51"/>
    <path id="Polygon_47" data-name="Polygon 47" d="M22.5,0,45,39H0Z" transform="translate(225 42)" fill="#e76f51"/>
    <path id="Polygon_23" data-name="Polygon 23" d="M22.5,0,45,39H0Z" transform="translate(225 210)" fill="#e76f51"/>
    <path id="Polygon_28" data-name="Polygon 28" d="M22.5,0,45,39H0Z" transform="translate(270 252)" fill="#e76f51"/>
    <path id="Polygon_61" data-name="Polygon 61" d="M22.5,0,45,39H0Z" transform="translate(315 333) rotate(180)" fill="#e76f51"/>
    <path id="Polygon_38" data-name="Polygon 38" d="M22.5,0,45,39H0Z" transform="translate(360 207) rotate(180)" fill="#e76f51"/>
    <path id="Polygon_42" data-name="Polygon 42" d="M22.5,0,45,39H0Z" transform="translate(315 165) rotate(180)" fill="#e76f51"/>
    <path id="Polygon_41" data-name="Polygon 41" d="M22.5,0,45,39H0Z" transform="translate(315 249) rotate(180)" fill="#e76f51"/>
    <path id="Polygon_16" data-name="Polygon 16" d="M22.5,0,45,39H0Z" transform="translate(180 207) rotate(180)" fill="#e76f51"/>
    <path id="Polygon_34" data-name="Polygon 34" d="M22.5,0,45,39H0Z" transform="translate(270 123) rotate(180)" fill="#e76f51"/>
    <path id="Polygon_19" data-name="Polygon 19" d="M22.5,0,45,39H0Z" transform="translate(225 165) rotate(180)" fill="#e76f51"/>
    <path id="Polygon_48" data-name="Polygon 48" d="M22.5,0,45,39H0Z" transform="translate(225 81) rotate(180)" fill="#e76f51"/>
    <path id="Polygon_24" data-name="Polygon 24" d="M22.5,0,45,39H0Z" transform="translate(225 249) rotate(180)" fill="#e76f51"/>
    <path id="Polygon_29" data-name="Polygon 29" d="M22.5,0,45,39H0Z" transform="translate(270 291) rotate(180)" fill="#e76f51"/>
    <path id="Polygon_52" data-name="Polygon 52" d="M22.5,0,45,39H0Z" transform="translate(225 294)" fill="#e76f51"/>
    <path id="Polygon_60" data-name="Polygon 60" d="M22.5,0,45,39H0Z" transform="translate(270 375) rotate(180)" fill="#e76f51"/>
    <path id="Polygon_54" data-name="Polygon 54" d="M22.5,0,45,39H0Z" transform="translate(180 336)" fill="#e76f51"/>
    <path id="Polygon_59" data-name="Polygon 59" d="M22.5,0,45,39H0Z" transform="translate(225 417) rotate(180)" fill="#e76f51"/>
    <path id="Polygon_39" data-name="Polygon 39" d="M22.5,0,45,39H0Z" transform="translate(270 168)" fill="#e76f51"/>
    <path id="Polygon_43" data-name="Polygon 43" d="M22.5,0,45,39H0Z" transform="translate(315 126)" fill="#e76f51"/>
    <path id="Polygon_45" data-name="Polygon 45" d="M22.5,0,45,39H0Z" transform="translate(315 210)" fill="#e76f51"/>
    <path id="Polygon_62" data-name="Polygon 62" d="M22.5,0,45,39H0Z" transform="translate(360 291) rotate(180)" fill="#e76f51"/>
    <path id="Polygon_36" data-name="Polygon 36" d="M22.5,0,45,39H0Z" transform="translate(180 123) rotate(180)" fill="#e76f51"/>
    <path id="Polygon_31" data-name="Polygon 31" d="M22.5,0,45,39H0Z" transform="translate(180 291) rotate(180)" fill="#e76f51"/>
    <path id="Polygon_53" data-name="Polygon 53" d="M22.5,0,45,39H0Z" transform="translate(135 294)" fill="#e76f51"/>
    <path id="Polygon_58" data-name="Polygon 58" d="M22.5,0,45,39H0Z" transform="translate(180 375) rotate(180)" fill="#e76f51"/>
    <path id="Polygon_13" data-name="Polygon 13" d="M22.5,0,45,39H0Z" transform="translate(90 168)" fill="#e76f51"/>
    <path id="Polygon_37" data-name="Polygon 37" d="M22.5,0,45,39H0Z" transform="translate(90 84)" fill="#e76f51"/>
    <path id="Polygon_22" data-name="Polygon 22" d="M22.5,0,45,39H0Z" transform="translate(45 126)" fill="#e76f51"/>
    <path id="Polygon_27" data-name="Polygon 27" d="M22.5,0,45,39H0Z" transform="translate(45 210)" fill="#e76f51"/>
    <path id="Polygon_56" data-name="Polygon 56" d="M22.5,0,45,39H0Z" transform="translate(90 291) rotate(180)" fill="#e76f51"/>
    <path id="Polygon_32" data-name="Polygon 32" d="M22.5,0,45,39H0Z" transform="translate(90 252)" fill="#e76f51"/>
    <path id="Polygon_57" data-name="Polygon 57" d="M22.5,0,45,39H0Z" transform="translate(135 333) rotate(180)" fill="#e76f51"/>
    <path id="Polygon_17" data-name="Polygon 17" d="M22.5,0,45,39H0Z" transform="translate(90 207) rotate(180)" fill="#e76f51"/>
    <path id="Polygon_21" data-name="Polygon 21" d="M22.5,0,45,39H0Z" transform="translate(135 165) rotate(180)" fill="#e76f51"/>
    <path id="Polygon_26" data-name="Polygon 26" d="M22.5,0,45,39H0Z" transform="translate(135 249) rotate(180)" fill="#e76f51"/>
  </g>
</svg>
