<svg xmlns="http://www.w3.org/2000/svg" width="159.683" height="185.655" viewBox="0 0 159.683 185.655">
  <g id="Group_248" data-name="Group 248" transform="translate(-148.609 -323.099)">
    <path id="Path_1048" data-name="Path 1048" d="M309.111,439c-2.21-8.935-9.462-11.7-15.2-29.041a67.464,67.464,0,0,1-2.667-10.195c-1.129-9.136,1.633-15.4-.289-26.766-2.878-17.022-14.867-37.232-31.246-44.678-28.668-13.034-72.848,12.093-92.259,44.678-16.764,28.142-19.179,68.771,4.645,98.495,19.851,24.768,57.156,41.008,86.559,30.665,15.478-5.444,27.13-13.5,33.568-20.917C302.152,469.8,312.467,452.568,309.111,439Z" transform="translate(-2.976)" fill="none" stroke="#2a9d8f" stroke-miterlimit="10" stroke-width="3"/>
    <path id="Path_1049" data-name="Path 1049" d="M149.256,398.022c2.21,8.935,9.462,11.7,15.2,29.041a67.451,67.451,0,0,1,2.667,10.195c1.129,9.136-1.633,15.4.289,26.766,2.878,17.022,14.867,37.231,31.246,44.678,28.668,13.034,72.848-12.093,92.259-44.678,16.764-28.142,19.179-68.771-4.645-98.495-19.851-24.768-57.156-41.008-86.559-30.666-15.478,5.444-27.13,13.5-33.568,20.918C156.216,367.215,145.9,384.45,149.256,398.022Z" transform="translate(0 -3.458)" fill="#264653"/>
  </g>
</svg>
