<svg xmlns="http://www.w3.org/2000/svg" width="34.135" height="31.322" viewBox="0 0 34.135 31.322">
  <path id="Icon_awesome-download" data-name="Icon awesome-download" d="M14.4,0h5.334a1.535,1.535,0,0,1,1.6,1.468V11.746h5.847a1.212,1.212,0,0,1,.94,2.086l-10.14,9.311a1.375,1.375,0,0,1-1.82,0L6.007,13.832a1.212,1.212,0,0,1,.94-2.086H12.8V1.468A1.535,1.535,0,0,1,14.4,0ZM34.135,23v6.852a1.535,1.535,0,0,1-1.6,1.468H1.6A1.535,1.535,0,0,1,0,29.854V23a1.535,1.535,0,0,1,1.6-1.468h9.78l3.267,3a3.637,3.637,0,0,0,4.84,0l3.267-3h9.78A1.535,1.535,0,0,1,34.135,23Zm-8.267,5.384a1.338,1.338,0,1,0-1.333,1.224A1.286,1.286,0,0,0,25.868,28.386Zm4.267,0A1.338,1.338,0,1,0,28.8,29.609,1.286,1.286,0,0,0,30.135,28.386Z" fill="#fff"/>
</svg>
