<svg xmlns="http://www.w3.org/2000/svg" width="178.736" height="185.655" viewBox="0 0 178.736 185.655">
  <g id="Group_250" data-name="Group 250" transform="translate(3227.954 15665.849)">
    <g id="Group_249" data-name="Group 249">
      <g id="Group_248" data-name="Group 248" transform="translate(-3376.563 -15988.947)">
        <path id="Path_1048" data-name="Path 1048" d="M309.111,439c-2.21-8.935-9.462-11.7-15.2-29.041a67.464,67.464,0,0,1-2.667-10.195c-1.129-9.136,1.633-15.4-.289-26.766-2.878-17.022-14.867-37.232-31.246-44.678-28.668-13.034-72.848,12.093-92.259,44.678-16.764,28.142-19.179,68.771,4.645,98.495,19.851,24.768,57.156,41.008,86.559,30.665,15.478-5.444,27.13-13.5,33.568-20.917C302.152,469.8,312.467,452.568,309.111,439Z" transform="translate(-2.976)" fill="none" stroke="#2a9d8f" stroke-miterlimit="10" stroke-width="3"/>
        <path id="Path_1049" data-name="Path 1049" d="M149.256,398.022c2.21,8.935,9.462,11.7,15.2,29.041a67.451,67.451,0,0,1,2.667,10.195c1.129,9.136-1.633,15.4.289,26.766,2.878,17.022,14.867,37.231,31.246,44.678,28.668,13.034,72.848-12.093,92.259-44.678,16.764-28.142,19.179-68.771-4.645-98.495-19.851-24.768-57.156-41.008-86.559-30.666-15.478,5.444-27.13,13.5-33.568,20.918C156.216,367.215,145.9,384.45,149.256,398.022Z" transform="translate(0 -3.458)" fill="#264653"/>
      </g>
      <g id="Ellipse_341" data-name="Ellipse 341" transform="translate(-3109.218 -15656.141)" fill="#2a9d8f" stroke="#fff" stroke-width="4">
        <circle cx="30" cy="30" r="30" stroke="none"/>
        <circle cx="30" cy="30" r="28" fill="none"/>
      </g>
    </g>
    <path id="Icon_awesome-pencil-alt" data-name="Icon awesome-pencil-alt" d="M26.681,7.474,24.211,9.9a.652.652,0,0,1-.911,0L17.352,4.061a.623.623,0,0,1,0-.894L19.822.743a2.612,2.612,0,0,1,3.639,0L26.681,3.9A2.487,2.487,0,0,1,26.681,7.474ZM15.23,5.25,1.158,19.059.022,25.448a1.276,1.276,0,0,0,1.49,1.462l6.511-1.12L22.094,11.981a.623.623,0,0,0,0-.894L16.146,5.25a.659.659,0,0,0-.916,0ZM6.65,17.876a.724.724,0,0,1,0-1.041l8.252-8.1a.757.757,0,0,1,1.061,0,.724.724,0,0,1,0,1.041l-8.252,8.1a.757.757,0,0,1-1.061,0ZM4.716,22.3H7.288v1.909L3.832,24.8,2.165,23.166l.606-3.392H4.716Z" transform="translate(-3092.937 -15640.498)" fill="#fefefe"/>
  </g>
</svg>
