<svg xmlns="http://www.w3.org/2000/svg" width="218.143" height="183.169" viewBox="0 0 218.143 183.169">
  <g id="Group_252" data-name="Group 252" transform="translate(3891.861 15666.162)">
    <g id="Group_247" data-name="Group 247" transform="translate(-3926.37 -15857.902)">
      <path id="Path_1044" data-name="Path 1044" d="M218.275,365.312c27.163-13.938,31.205-41.581,31.847-45.974,4.3-29.419-15.986-52.873-47.6-89.425-13.279-15.352-20.143-23.133-31.177-28.314-28.226-13.253-65.809-8.632-92.19,5.887-5.669,3.12-37.88,21.589-42.24,56.627-.3,2.378-3.923,36.363,22.8,58.589,18.18,15.123,28.709,6.751,66.712,26.631,23.5,12.294,27.964,19.936,46.263,22.707C177.128,372.713,198.382,375.519,218.275,365.312Z" transform="translate(0 0)" fill="none" stroke="#2a9d8f" stroke-miterlimit="10" stroke-width="4" style="isolation: isolate"/>
      <path id="Path_1045" data-name="Path 1045" d="M88.253,201.059c-25.737,13.4-29.567,39.974-30.175,44.2-4.076,28.282,15.147,50.83,45.1,85.969,12.582,14.758,19.086,22.239,29.54,27.219,26.744,12.741,62.354,8.3,87.35-5.659,5.372-3,35.891-20.754,40.022-54.438.281-2.286,3.717-34.957-21.6-56.325-17.226-14.539-27.2-6.489-63.21-25.6-22.266-11.818-26.5-19.166-43.834-21.829C127.24,193.944,107.1,191.246,88.253,201.059Z" transform="translate(-13.725 0)" fill="#264653" style="isolation: isolate"/>
    </g>
    <g id="Ellipse_339" data-name="Ellipse 339" transform="translate(-3733.81 -15650.852)" fill="#2a9d8f" stroke="#fff" stroke-width="4">
      <circle cx="30" cy="30" r="30" stroke="none"/>
      <circle cx="30" cy="30" r="28" fill="none"/>
    </g>
    <path id="Icon_awesome-play" data-name="Icon awesome-play" d="M25.871,13.088,4.413.4A2.91,2.91,0,0,0,0,2.92V28.285A2.923,2.923,0,0,0,4.413,30.8l21.458-12.68a2.923,2.923,0,0,0,0-5.035Z" transform="translate(-3715.464 -15635.066)" fill="#fefefe"/>
  </g>
</svg>
