<svg xmlns="http://www.w3.org/2000/svg" width="201.027" height="185.457" viewBox="0 0 201.027 185.457">
  <g id="Group_251" data-name="Group 251" transform="translate(3562.53 15684.335)">
    <g id="Group_246" data-name="Group 246" transform="translate(-3740.657 -15919.314)">
      <path id="Path_1046" data-name="Path 1046" d="M310.733,397.357c36.6-17.1,43.788-29.978,47.194-44.089,2.7-11.176,2.942-16.782.874-30.947-1.7-11.641-5.211-35.681-25.346-57.009-7.41-7.85-24.435-25.884-49.816-28.5-43.576-4.5-78.189,39.906-90.893,63.524a112.512,112.512,0,0,0-13.109,53.751c.216,15.8.471,34.448,14.857,47.235,13.769,12.238,31.086,15.319,38.552,15.314C252.656,416.615,266.912,417.827,310.733,397.357Z" transform="translate(0 0)" fill="none" stroke="#2a9d8f" stroke-miterlimit="10" stroke-width="3" style="isolation: isolate"/>
      <path id="Path_1047" data-name="Path 1047" d="M231.213,267c-35.556,16.65-42.534,29.191-45.843,42.932-2.621,10.883-2.858,16.341-.849,30.136,1.651,11.335,5.061,34.744,24.619,55.512,7.2,7.644,23.736,25.2,48.391,27.756,42.328,4.381,75.95-38.858,88.29-61.857a109.766,109.766,0,0,0,12.734-52.34c-.21-15.386-.457-33.545-14.432-46-13.374-11.916-30.2-14.918-37.448-14.912C287.627,248.243,273.779,247.063,231.213,267Z" transform="translate(-0.972 -3.205)" fill="#264653" style="isolation: isolate"/>
    </g>
    <g id="Ellipse_340" data-name="Ellipse 340" transform="translate(-3421.503 -15650.852)" fill="#2a9d8f" stroke="#fff" stroke-width="4">
      <circle cx="30" cy="30" r="30" stroke="none"/>
      <circle cx="30" cy="30" r="28" fill="none"/>
    </g>
    <path id="Icon_awesome-key" data-name="Icon awesome-key" d="M33.749,10.061c0,5.557-5.194,10.061-11.6,10.061a13.4,13.4,0,0,1-2.164-.175L18.4,21.491a1.7,1.7,0,0,1-1.182.46H14.765v2.287a1.488,1.488,0,0,1-1.582,1.372H10.547V27.9a1.488,1.488,0,0,1-1.582,1.372H1.582A1.488,1.488,0,0,1,0,27.9V23.434a1.287,1.287,0,0,1,.463-.97l10.665-9.249a8.843,8.843,0,0,1-.582-3.154C10.547,4.5,15.741,0,22.148,0,28.574,0,33.749,4.488,33.749,10.061Zm-11.6-2.744a2.976,2.976,0,0,0,3.164,2.744,2.976,2.976,0,0,0,3.164-2.744,2.976,2.976,0,0,0-3.164-2.744A2.976,2.976,0,0,0,22.148,7.317Z" transform="translate(-3406.229 -15635.064)" fill="#fefefe"/>
  </g>
</svg>
