<svg xmlns="http://www.w3.org/2000/svg" xmlns:xlink="http://www.w3.org/1999/xlink" width="102.177" height="102.176" viewBox="0 0 102.177 102.176">
  <defs>
    <filter id="Path_1029" x="0" y="0" width="102.177" height="102.176" filterUnits="userSpaceOnUse">
      <feOffset dy="3" input="SourceAlpha"/>
      <feGaussianBlur stdDeviation="3" result="blur"/>
      <feFlood flood-opacity="0.161"/>
      <feComposite operator="in" in2="blur"/>
      <feComposite in="SourceGraphic"/>
    </filter>
  </defs>
  <g id="Group_261" data-name="Group 261" transform="translate(9 6)">
    <g transform="matrix(1, 0, 0, 1, -9, -6)" filter="url(#Path_1029)">
      <g id="Path_1029-2" data-name="Path 1029" transform="translate(9 6)" fill="#2a9d8f">
        <path d="M 42.08831787109375 83.67662048339844 C 36.47370529174805 83.67662048339844 31.02731704711914 82.57709503173828 25.90042877197266 80.40860748291016 C 20.94817352294922 78.31398773193359 16.50049591064453 75.31523895263672 12.68093967437744 71.49568176269531 C 8.861384391784668 67.67611694335938 5.862639904022217 63.22843933105469 3.768017768859863 58.27619552612305 C 1.599529027938843 53.14930725097656 0.5000067353248596 47.70290756225586 0.5000067353248596 42.08830642700195 C 0.5000067353248596 36.47370529174805 1.599529027938843 31.02730560302734 3.768017768859863 25.90041732788086 C 5.862639904022217 20.94817352294922 8.861384391784668 16.50049591064453 12.68093967437744 12.68093967437744 C 16.50049591064453 8.861384391784668 20.94817352294922 5.862639904022217 25.90041732788086 3.768017530441284 C 31.02731704711914 1.599528670310974 36.47370529174805 0.5000064373016357 42.08831787109375 0.5000064373016357 C 47.70293045043945 0.5000064373016357 53.14931869506836 1.599528670310974 58.27621841430664 3.768017530441284 C 63.22846221923828 5.862639904022217 67.67613983154297 8.861384391784668 71.49569702148438 12.68093967437744 C 75.31526184082031 16.50049591064453 78.31400299072266 20.94817352294922 80.40863037109375 25.90041732788086 C 82.57711791992188 31.02730560302734 83.67664337158203 36.47370529174805 83.67664337158203 42.08830642700195 C 83.67664337158203 47.70290756225586 82.57711791992188 53.14930725097656 80.40863037109375 58.27619552612305 C 78.31400299072266 63.22843933105469 75.31526184082031 67.67611694335938 71.49569702148438 71.49568176269531 C 67.67613983154297 75.31523895263672 63.22846221923828 78.31398773193359 58.27621841430664 80.40860748291016 C 53.14931869506836 82.57709503173828 47.70293045043945 83.67662048339844 42.08831787109375 83.67662048339844 Z" stroke="none"/>
        <path d="M 42.08831787109375 0.9999923706054688 C 36.54098510742188 0.9999923706054688 31.16012954711914 2.086227416992188 26.09519577026367 4.228507995605469 C 21.20255279541016 6.297927856445313 16.80829620361328 9.26068115234375 13.03448486328125 13.03448486328125 C 9.26068115234375 16.80828094482422 6.297927856445313 21.20254135131836 4.228507995605469 26.09518432617188 C 2.086227416992188 31.16011810302734 0.9999923706054688 36.54098510742188 0.9999923706054688 42.08830642700195 C 0.9999923706054688 47.63562774658203 2.086227416992188 53.01649475097656 4.228507995605469 58.08141708374023 C 6.297927856445313 62.97406005859375 9.26068115234375 67.36831665039063 13.03448486328125 71.14212036132813 C 16.80829620361328 74.91591644287109 21.20255279541016 77.87868499755859 26.09519577026367 79.94809722900391 C 31.16012954711914 82.09037017822266 36.54099655151367 83.17660522460938 42.08831787109375 83.17660522460938 C 47.63563919067383 83.17660522460938 53.01650619506836 82.09037017822266 58.08143997192383 79.94809722900391 C 62.97408294677734 77.87868499755859 67.36833953857422 74.91591644287109 71.14214324951172 71.14212036132813 C 74.91593933105469 67.36831665039063 77.87869262695313 62.97406005859375 79.9481201171875 58.08141708374023 C 82.09039306640625 53.01649475097656 83.17662811279297 47.63562774658203 83.17662811279297 42.08830642700195 C 83.17662811279297 36.54097366333008 82.09039306640625 31.16011810302734 79.9481201171875 26.09518432617188 C 77.87869262695313 21.20254135131836 74.91593933105469 16.80828094482422 71.14214324951172 13.03448486328125 C 67.36833953857422 9.26068115234375 62.97408294677734 6.297927856445313 58.08143997192383 4.228507995605469 C 53.01650619506836 2.086227416992188 47.63565063476563 0.9999923706054688 42.08831787109375 0.9999923706054688 M 42.08831787109375 -7.62939453125e-06 C 65.33305358886719 -7.62939453125e-06 84.17662811279297 18.84357452392578 84.17662811279297 42.08830642700195 C 84.17662811279297 65.33303070068359 65.33305358886719 84.17660522460938 42.08831787109375 84.17660522460938 C 18.84358215332031 84.17660522460938 -7.62939453125e-06 65.33303070068359 -7.62939453125e-06 42.08830642700195 C -7.62939453125e-06 18.84357452392578 18.84358215332031 -7.62939453125e-06 42.08831787109375 -7.62939453125e-06 Z" stroke="none" fill="#fbddc6"/>
      </g>
    </g>
    <path id="Icon_awesome-clipboard-check" data-name="Icon awesome-clipboard-check" d="M31.978,6.114H24.364a6.091,6.091,0,1,0-12.182,0H4.568A4.578,4.578,0,0,0,0,10.7V44.327a4.578,4.578,0,0,0,4.568,4.586h27.41a4.578,4.578,0,0,0,4.568-4.586V10.7A4.578,4.578,0,0,0,31.978,6.114Zm-13.7-2.293a2.293,2.293,0,1,1-2.284,2.293A2.283,2.283,0,0,1,18.273,3.821ZM29.808,25.966,16.2,39.512a1.14,1.14,0,0,1-1.618-.01L6.719,31.545a1.151,1.151,0,0,1,.01-1.624l2.7-2.694a1.14,1.14,0,0,1,1.618.01l4.378,4.433,10.088-10.05a1.14,1.14,0,0,1,1.618.01l2.684,2.713A1.15,1.15,0,0,1,29.808,25.966Z" transform="translate(23.815 15.062)" fill="#fbfbfb"/>
  </g>
</svg>
