<svg xmlns="http://www.w3.org/2000/svg" xmlns:xlink="http://www.w3.org/1999/xlink" width="102.177" height="102.176" viewBox="0 0 102.177 102.176">
  <defs>
    <filter id="Path_834" x="0" y="0" width="102.177" height="102.176" filterUnits="userSpaceOnUse">
      <feOffset dy="3" input="SourceAlpha"/>
      <feGaussianBlur stdDeviation="3" result="blur"/>
      <feFlood flood-opacity="0.161"/>
      <feComposite operator="in" in2="blur"/>
      <feComposite in="SourceGraphic"/>
    </filter>
  </defs>
  <g id="Group_263" data-name="Group 263" transform="translate(9 6)">
    <g id="Group_87" data-name="Group 87" transform="translate(0)">
      <g transform="matrix(1, 0, 0, 1, -9, -6)" filter="url(#Path_834)">
        <path id="Path_834-2" data-name="Path 834" d="M42.088,0A42.088,42.088,0,1,1,0,42.088,42.088,42.088,0,0,1,42.088,0Z" transform="translate(9 6)" fill="#2a9d8f"/>
      </g>
      <path id="Icon_awesome-theater-masks" data-name="Icon awesome-theater-masks" d="M18.537,27.1A8.179,8.179,0,0,0,13.382,35.3a10.622,10.622,0,0,1,4.472-3.419ZM8.586,32.615,5.742,12.769a.666.666,0,0,1,.022-.293A29.964,29.964,0,0,1,22.7,7.057c.144,0,.289.019.435.021A8.154,8.154,0,0,1,27.759,4.2a35.572,35.572,0,0,1,5.124-.588A5.809,5.809,0,0,0,29.14.63,33.356,33.356,0,0,0,22.7,0,34.774,34.774,0,0,0,2.975,6.309C.809,7.792-.351,10.888.094,13.995L2.937,33.841c1.275,8.9,12.217,15.708,18.321,15.708a6.722,6.722,0,0,0,.9-.088,31.84,31.84,0,0,1-3.54-7.472c-4.266-1.435-9.5-5.707-10.03-9.374Zm8.741-15.2a5.067,5.067,0,0,0-.365-1.26A5.4,5.4,0,0,1,13.8,18.183a4.7,4.7,0,0,1-3.538-.572,5.352,5.352,0,0,0,.008,1.338c.344,2.4,2.2,4,4.153,3.579S17.671,19.817,17.327,17.418Zm37.048-4.051A34.135,34.135,0,0,0,28.211,7.689c-2.447.482-4.4,2.9-4.843,6.01L20.525,33.546c-1.379,9.624,8.538,21.7,14.186,22.925s18.323-5.947,19.7-15.571l2.843-19.847c.445-3.108-.715-6.2-2.881-7.686ZM29.89,24.069c.344-2.4,2.2-4,4.153-3.578s3.251,2.711,2.908,5.11a5.068,5.068,0,0,1-.365,1.26,5.4,5.4,0,0,0-3.165-2.025,4.7,4.7,0,0,0-3.538.572,5.318,5.318,0,0,1,.007-1.339Zm6.315,21.975c-4.99-1.082-8.38-6.553-7.979-12.482a14.284,14.284,0,0,0,8.915,5.946,12.382,12.382,0,0,0,10.03-1.835C45.9,43.415,41.194,47.126,36.205,46.044ZM47.882,29.312a5.4,5.4,0,0,0-3.166-2.025,4.7,4.7,0,0,0-3.538.572,5.352,5.352,0,0,1,.008-1.338c.344-2.4,2.2-4,4.153-3.579s3.251,2.711,2.908,5.11a5.04,5.04,0,0,1-.365,1.26Z" transform="translate(13.413 13.785)" fill="#fbfbfb"/>
    </g>
  </g>
</svg>
