<svg xmlns="http://www.w3.org/2000/svg" xmlns:xlink="http://www.w3.org/1999/xlink" width="102.177" height="102.176" viewBox="0 0 102.177 102.176">
  <defs>
    <filter id="Ellipse_17" x="0" y="0" width="102.177" height="102.176" filterUnits="userSpaceOnUse">
      <feOffset dy="3" input="SourceAlpha"/>
      <feGaussianBlur stdDeviation="3" result="blur"/>
      <feFlood flood-opacity="0.161"/>
      <feComposite operator="in" in2="blur"/>
      <feComposite in="SourceGraphic"/>
    </filter>
  </defs>
  <g id="Group_262" data-name="Group 262" transform="translate(9 6)">
    <g id="Group_88" data-name="Group 88" transform="translate(0)">
      <g transform="matrix(1, 0, 0, 1, -9, -6)" filter="url(#Ellipse_17)">
        <circle id="Ellipse_17-2" data-name="Ellipse 17" cx="42.088" cy="42.088" r="42.088" transform="translate(9 6)" fill="#2a9d8f"/>
      </g>
      <path id="Icon_material-chat" data-name="Icon material-chat" d="M7.117,3H40.052a4.337,4.337,0,0,1,4.1,4.534l.021,40.8-8.234-9.067H7.117A4.353,4.353,0,0,1,3,34.735V7.534A4.353,4.353,0,0,1,7.117,3ZM35.935,18.867h-24.7V23.4h24.7ZM11.234,30.2H25.841V25.668H11.234Zm0-13.6h24.7V12.067h-24.7Z" transform="translate(18.504 18.21)" fill="#fbfbfb"/>
    </g>
  </g>
</svg>
