<svg xmlns="http://www.w3.org/2000/svg" width="178.736" height="203.129" viewBox="0 0 178.736 203.129">
  <g id="Group_412" data-name="Group 412" transform="translate(-5284.814 18475.648)">
    <g id="Group_217" data-name="Group 217" transform="translate(5284.814 -18474.141)">
      <path id="Path_1048" data-name="Path 1048" d="M323.962,449.967c-2.422-9.794-10.371-12.829-16.661-31.831a73.945,73.945,0,0,1-2.924-11.174c-1.237-10.014,1.79-16.882-.316-29.338-3.155-18.657-16.3-40.809-34.248-48.971-31.422-14.287-79.848,13.255-101.123,48.971C150.315,408.47,147.669,453,173.781,485.582c21.758,27.147,62.647,44.948,94.875,33.611,16.965-5.968,29.737-14.8,36.793-22.927C316.334,483.734,327.64,464.843,323.962,449.967Z" transform="translate(-151.302 -324.806)" fill="none" stroke="#2a9d8f" stroke-miterlimit="10" stroke-width="3"/>
      <path id="Path_1049" data-name="Path 1049" d="M149.318,404.395c2.422,9.794,10.371,12.829,16.661,31.831A73.932,73.932,0,0,1,168.9,447.4c1.237,10.014-1.79,16.882.316,29.338,3.155,18.657,16.3,40.808,34.248,48.971,31.422,14.287,79.848-13.255,101.123-48.971,18.375-30.846,21.022-75.379-5.091-107.958-21.758-27.147-62.647-44.948-94.875-33.612-16.965,5.968-29.737,14.8-36.793,22.927C156.947,370.628,145.64,389.519,149.318,404.395Z" transform="translate(-148.61 -327.934)" fill="#264653"/>
    </g>
    <g id="Ellipse_338" data-name="Ellipse 338" transform="translate(5403.551 -18466.141)" fill="#2a9d8f" stroke="#fff" stroke-width="4">
      <circle cx="30" cy="30" r="30" stroke="none"/>
      <circle cx="30" cy="30" r="28" fill="none"/>
    </g>
    <text id="_3" data-name="3" transform="translate(5434 -18422)" fill="#fff" font-size="35" font-family="Roboto-Black, Roboto" font-weight="800" letter-spacing="0.05em"><tspan x="-10.134" y="0">3</tspan></text>
  </g>
</svg>
