<svg id="Group_138" data-name="Group 138" xmlns="http://www.w3.org/2000/svg" width="461" height="320.5" viewBox="0 0 461 320.5">
  <g id="Group_201" data-name="Group 201">
    <rect id="Rectangle_126" data-name="Rectangle 126" width="55.13" height="16.666" rx="7.43" transform="translate(123.06 145.09)" fill="#6c63ff" opacity="0.1"/>
    <rect id="Rectangle_129" data-name="Rectangle 129" width="55.13" height="16.666" rx="7.43" transform="translate(123.06 120.086)" fill="#6c63ff" opacity="0.1"/>
    <rect id="Rectangle_138" data-name="Rectangle 138" width="55.13" height="16.666" rx="7.43" transform="translate(123.06 86.75)" fill="#6c63ff" opacity="0.1"/>
    <rect id="Rectangle_141" data-name="Rectangle 141" width="55.13" height="16.666" rx="7.43" transform="translate(123.06 61.752)" fill="#6c63ff" opacity="0.1"/>
    <g id="Group_139" data-name="Group 139">
      <rect id="Rectangle_125" data-name="Rectangle 125" width="55.13" height="16.666" rx="7.43" transform="translate(65.365 128.419)" fill="rgba(82,157,163,0.1)"/>
      <rect id="Rectangle_127" data-name="Rectangle 127" width="55.13" height="16.666" rx="7.43" transform="translate(180.758 161.755)" fill="rgba(82,157,163,0.1)"/>
      <rect id="Rectangle_128" data-name="Rectangle 128" width="55.13" height="16.666" rx="7.43" transform="translate(65.365 103.42)" fill="rgba(82,157,163,0.1)"/>
      <rect id="Rectangle_130" data-name="Rectangle 130" width="55.13" height="16.666" rx="7.43" transform="translate(180.758 136.757)" fill="rgba(82,157,163,0.1)"/>
      <rect id="Rectangle_131" data-name="Rectangle 131" width="55.13" height="16.666" rx="7.43" transform="translate(244.862 128.419)" fill="rgba(82,157,163,0.1)"/>
      <rect id="Rectangle_132" data-name="Rectangle 132" width="55.13" height="16.666" rx="7.43" transform="translate(302.556 145.089)" fill="rgba(82,157,163,0.1)"/>
      <rect id="Rectangle_133" data-name="Rectangle 133" width="55.13" height="16.666" rx="7.43" transform="translate(360.255 161.755)" fill="rgba(82,157,163,0.1)"/>
      <rect id="Rectangle_134" data-name="Rectangle 134" width="55.13" height="16.666" rx="7.43" transform="translate(244.862 103.42)" fill="rgba(82,157,163,0.1)"/>
      <rect id="Rectangle_135" data-name="Rectangle 135" width="55.13" height="16.666" rx="7.43" transform="translate(302.556 120.086)" fill="rgba(82,157,163,0.1)"/>
      <rect id="Rectangle_136" data-name="Rectangle 136" width="55.13" height="16.666" rx="7.43" transform="translate(360.255 136.757)" fill="rgba(82,157,163,0.1)"/>
      <rect id="Rectangle_137" data-name="Rectangle 137" width="55.13" height="16.666" rx="7.43" transform="translate(65.365 70.084)" fill="rgba(82,157,163,0.1)"/>
      <rect id="Rectangle_139" data-name="Rectangle 139" width="55.13" height="16.666" rx="7.43" transform="translate(180.758 103.42)" fill="rgba(82,157,163,0.1)"/>
      <rect id="Rectangle_140" data-name="Rectangle 140" width="55.13" height="16.666" rx="7.43" transform="translate(65.365 45.081)" fill="rgba(82,157,163,0.1)"/>
      <rect id="Rectangle_142" data-name="Rectangle 142" width="55.13" height="16.666" rx="7.43" transform="translate(180.758 78.417)" fill="rgba(82,157,163,0.1)"/>
      <rect id="Rectangle_143" data-name="Rectangle 143" width="55.13" height="16.666" rx="7.43" transform="translate(244.862 70.084)" fill="rgba(82,157,163,0.1)"/>
      <rect id="Rectangle_144" data-name="Rectangle 144" width="55.13" height="16.666" rx="7.43" transform="translate(302.556 86.75)" fill="rgba(82,157,163,0.1)"/>
      <rect id="Rectangle_145" data-name="Rectangle 145" width="55.13" height="16.666" rx="7.43" transform="translate(360.255 103.42)" fill="rgba(82,157,163,0.1)"/>
      <rect id="Rectangle_146" data-name="Rectangle 146" width="55.13" height="16.666" rx="7.43" transform="translate(244.862 45.081)" fill="rgba(82,157,163,0.1)"/>
      <rect id="Rectangle_147" data-name="Rectangle 147" width="55.13" height="16.666" rx="7.43" transform="translate(302.556 61.751)" fill="rgba(82,157,163,0.1)"/>
      <rect id="Rectangle_148" data-name="Rectangle 148" width="55.13" height="16.666" rx="7.43" transform="translate(360.255 78.417)" fill="rgba(82,157,163,0.1)"/>
    </g>
    <ellipse id="Ellipse_326" data-name="Ellipse 326" cx="230.5" cy="42" rx="230.5" ry="42" transform="translate(0 236.5)" fill="#9d9d9d" opacity="0.269"/>
    <path id="Path_954" data-name="Path 954" d="M213.4,320.711,194,439.633l87.716-9.278-3.8-10.121-68.528,5.693L225.417,320.5Z" transform="translate(-112.188 -185.342)" fill="#262534"/>
    <path id="Path_955" data-name="Path 955" d="M186,.422,304.079,0l34.159,258.509-118.5,16.025Z" transform="translate(-107.562)" fill="#262534"/>
    <path id="Path_956" data-name="Path 956" d="M216.5,24.5h95.307l33.315,240.375L246.863,278.37Z" transform="translate(-125.199 -14.168)" fill="#fff"/>
    <path id="Path_957" data-name="Path 957" d="M462.555,635.056a23.508,23.508,0,0,0,1.826,3.42c2.277,3.045,6.6,3.521,9.843,5.508a.907.907,0,0,1,.384.371c.148.35-.181.717-.5.936-2.459,1.725-5.685,1.763-8.691,1.742a11.589,11.589,0,0,1-3.007-.287c-1.59-.422-2.952-1.531-4.521-1.982a11.993,11.993,0,0,0-2.484-.35l-3.294-.224a7.765,7.765,0,0,1-2.568-.477,2.6,2.6,0,0,1-1.619-1.919,5.514,5.514,0,0,1,.384-2.062c.422-1.619.291-3.576,1.552-4.681a4.787,4.787,0,0,1,1.75-.843,55.819,55.819,0,0,1,7-1.864C460.569,631.96,461.691,633.394,462.555,635.056Z" transform="translate(-281.371 -395.162)" fill="#3f3d56"/>
    <path id="Path_958" data-name="Path 958" d="M377.329,644.866a3.082,3.082,0,0,1-.54,2.556,2.881,2.881,0,0,1-1.413.633c-3.116.725-6.591.776-9.3-.919a2.567,2.567,0,0,1-.734-.628,2.29,2.29,0,0,1-.371-1.16,9.95,9.95,0,0,1,.6-3.521,61.788,61.788,0,0,0,1.792-8.329c.034-.232,7.958,1.265,8.485,2.05.662.97.666,3.3.843,4.453Q377.092,642.42,377.329,644.866Z" transform="translate(-233.398 -395.85)" fill="#3f3d56"/>
    <path id="Path_959" data-name="Path 959" d="M400.819,381.545l2.109,19.605A68.249,68.249,0,0,1,403.5,413.2c-.337,4.639-1.636,9.278-1.088,13.874.215,1.788.7,3.542.776,5.343a29.1,29.1,0,0,1-.181,3.585c-.953,11.9,2.062,23.7,3.749,35.512a15.408,15.408,0,0,1,.177,4.419c-.219,1.5-.658,3.462.675,4.171l-12.516,4.538c-1.6-2-.54-5.12-.843-7.662-.278-2.29-1.535-4.331-2.206-6.537a30.872,30.872,0,0,1-.932-6.127c-1.092-11.2-4.445-22.119-5.229-33.349a15.184,15.184,0,0,0-.422-3.218,29.934,29.934,0,0,0-1.881-3.926,27.686,27.686,0,0,1-1.864-6.262l-2.678-12.546c-2.707,4.032-2.6,9.278-3.133,14.11-.751,6.747-2.429,13.381-3.8,20.044a39.826,39.826,0,0,0-.713,4.344c-.354,3.909.35,7.857-.025,11.762-.422,4.525-2.324,8.94-1.864,13.465.253,2.5,1.215,4.875,1.864,7.3s.97,5.094-.021,7.409a22.772,22.772,0,0,0-10.842-1.2c-4.019-4.112-4.732-9.847-5.006-15.6s.388-11.521-.329-17.223c-.211-1.687-.54-3.332-.595-5.014-.177-5.394,2.416-10.442,3.707-15.683a33.189,33.189,0,0,0,.325-14.4c-.633-3.15-1.721-6.208-2.109-9.4-.527-4.474.367-8.982,1.265-13.4.6-2.981,1.2-5.963,1.885-8.928.734-3.184,1.607-6.435,3.568-9.042,3.138-4.171,8.708-6.022,13.916-5.617s10.07,2.775,14.372,5.727A54.181,54.181,0,0,1,400.819,381.545Z" transform="translate(-227.395 -242.268)" fill="#18212b"/>
    <path id="Path_960" data-name="Path 960" d="M409.348,211.87a3.64,3.64,0,0,0-.485,1.24,4.176,4.176,0,0,0,.843,2.412,13.138,13.138,0,0,1,1.236,3.078,5.062,5.062,0,0,1,.181,2.054,4.955,4.955,0,0,1-.548,1.476,7.509,7.509,0,0,1-3.66,3.673,6.448,6.448,0,0,1-3.96.16,12.023,12.023,0,0,1-3.622-1.721,11.01,11.01,0,0,1-2.48-2.151,14.867,14.867,0,0,1-1.712-2.952c-.877-1.834-1.767-3.8-1.607-5.807a1.94,1.94,0,0,1,.1-.536,2.88,2.88,0,0,1,.565-.843,11.006,11.006,0,0,0,2.581-7.654l6.144,1.4c1.354.308,2.707.616,4.044,1,1.1.316,2.783.755,3.5,1.733S409.833,210.976,409.348,211.87Z" transform="translate(-249.916 -147.664)" fill="#fbbebe"/>
    <circle id="Ellipse_327" data-name="Ellipse 327" cx="11.167" cy="11.167" r="11.167" transform="translate(144.976 40.826)" fill="#fbbebe"/>
    <path id="Path_961" data-name="Path 961" d="M396.475,236.569a6.459,6.459,0,0,1,2.425-2.336,4.32,4.32,0,0,0,2.058-2.606,1.868,1.868,0,0,1,.186-.734c.358-.54,1.21-.27,1.721.127a13.215,13.215,0,0,1,2.906,3.673,31.383,31.383,0,0,1,2.72,5.141c1.185,3.125,1.328,6.537,1.459,9.872a32.1,32.1,0,0,1-.506,9.063c-.464,1.864-1.265,3.673-1.312,5.592-.139,6.971-2.56,13.634-2.728,20.6a53.446,53.446,0,0,0,.3,6.035l.4,4.525q-9.2-.527-18.344-1.615a35.09,35.09,0,0,0-1.316-6.119,132.807,132.807,0,0,1-4.263-25.193c-.325-4.521-.658-9.025-1.16-13.529-.451-4.095-1.337-8.215-.805-12.3a16.982,16.982,0,0,1,1.729-5.322,3.508,3.508,0,0,1,1.349-1.615,3.648,3.648,0,0,1,.953-.308,17.69,17.69,0,0,1,2.9-.342,2,2,0,0,1,.708.068,2.222,2.222,0,0,1,.966.936,17.509,17.509,0,0,0,7.654,6.385Z" transform="translate(-242.129 -162.049)" fill="#f2f2f2"/>
    <path id="Path_962" data-name="Path 962" d="M406.72,243.391c.784,1.122,2.446,1.387,3.171,2.53a6.635,6.635,0,0,1,.552,1.506c.443,1.413,1.337,2.64,1.881,4.019a17.232,17.232,0,0,1,.814,6.3,20.863,20.863,0,0,1-.388,5.061c-.253,1.042-.666,2.033-.97,3.062a14.97,14.97,0,0,0-.565,5.4,2.209,2.209,0,0,0,.3,1.117,2.425,2.425,0,0,0,1.08.734,7.992,7.992,0,0,0,3.88.974,1.421,1.421,0,0,0,.772-.257,1.717,1.717,0,0,0,.38-.5l.843-1.425c.763-1.3,1.56-2.762,1.265-4.251a8.434,8.434,0,0,0-.957-2.18,25.625,25.625,0,0,1-1.375-3.4c-1.345-3.867-2.707-7.789-3.011-11.871a10.433,10.433,0,0,1,.506-4.605,13.113,13.113,0,0,1,1.484-2.568,1.1,1.1,0,0,0-1.185-.4,7.049,7.049,0,0,0-1.227.51,5.822,5.822,0,0,1-3.867-.025,6.759,6.759,0,0,0-1.771-.6C408.162,242.539,406.75,243.441,406.72,243.391Z" transform="translate(-257.553 -169.764)" fill="#273995"/>
    <path id="Path_963" data-name="Path 963" d="M424.356,235.6c-.253-.2-.645-.388-.869-.152a.978.978,0,0,0-.16.342,2.27,2.27,0,0,1-1.451,1.109c-.586.228-1.219.354-1.573-.08a.953.953,0,0,1,.055-1.126,3.441,3.441,0,0,1,.924-.78,9.016,9.016,0,0,0,3.677-5.786,2.75,2.75,0,0,1,1.008,1.742c.139.671.156,1.362.3,2.033a28.5,28.5,0,0,1,.772,2.834,14.817,14.817,0,0,1,0,1.56,9.579,9.579,0,0,0,.177,1.51A28.7,28.7,0,0,0,424.356,235.6Z" transform="translate(-265.316 -162.023)" fill="#f2f2f2"/>
    <path id="Path_964" data-name="Path 964" d="M400.99,227.182c-.422-.4-.843-.78-1.265-1.189a16.4,16.4,0,0,1-4.078-6.473,2.434,2.434,0,0,0-1.147,1.687,2.585,2.585,0,0,0,.557,1.371,21.373,21.373,0,0,1,3.091,8.27,2.463,2.463,0,0,1,2.13-1.134c.666,0,3.656,1.771,3.871,1.324C404.465,230.337,401.5,227.659,400.99,227.182Z" transform="translate(-250.486 -156.467)" fill="#f2f2f2"/>
    <path id="Path_967" data-name="Path 967" d="M322.342,278.452q-1.29,3.8-2.328,7.658-1.012,3.8-1.809,7.633a16.347,16.347,0,0,0-.455,3.433,15.358,15.358,0,0,0,.687,3.968c2.716,9.788,7.667,18.817,13.242,27.306a24.578,24.578,0,0,1,5.609-5.12,1.2,1.2,0,0,0,.422-.422,1.143,1.143,0,0,0-.135-.987c-1.539-3.154-3.977-5.934-4.744-9.362-.32-1.425-.333-2.91-.7-4.327-.468-1.834-1.514-3.513-1.754-5.394-.257-2.05.422-4.285-.54-6.1,1.961-.763,3.1-2.783,3.926-4.719a25.849,25.849,0,0,0,1.889-6.2,18.665,18.665,0,0,0-2.281-11.871,18.977,18.977,0,0,0-3.817-4.791c-.5-.451-1.687-1.746-2.416-1.733-.974.021-1.286,1.6-1.565,2.307C324.451,272.62,323.338,275.517,322.342,278.452Z" transform="translate(-206.103 -184.166)" fill="#302f45"/>
    <path id="Path_1001" data-name="Path 1001" d="M330.7,278.452q1.084,3.8,1.955,7.658.85,3.8,1.519,7.633a19.3,19.3,0,0,1,.383,3.433,18.028,18.028,0,0,1-.577,3.968c-2.281,9.788-6.439,18.817-11.121,27.306a22.5,22.5,0,0,0-4.711-5.12,1.126,1.126,0,0,1-.354-.422,1.33,1.33,0,0,1,.113-.987c1.293-3.154,3.34-5.934,3.985-9.362.269-1.425.28-2.91.584-4.327.393-1.834,1.272-3.513,1.473-5.394.216-2.05-.354-4.285.453-6.1-1.647-.763-2.6-2.783-3.3-4.719a29.6,29.6,0,0,1-1.587-6.2,21.708,21.708,0,0,1,1.916-11.871,18.817,18.817,0,0,1,3.205-4.791c.421-.451,1.417-1.746,2.029-1.733.818.021,1.08,1.6,1.314,2.307C328.933,272.62,329.868,275.517,330.7,278.452Z" transform="translate(-151.347 -183.166)" fill="#302f45"/>
    <path id="Path_968" data-name="Path 968" d="M357.812,400.037c.127.093.27.219.236.371s-.156.19-.266.253a3.273,3.273,0,0,0-1.215,1.645,45.919,45.919,0,0,0-1.83,4.845,21.242,21.242,0,0,0-3.306-3.859,9.357,9.357,0,0,1-2.551-2.922c0-.034,2.21-1.666,2.412-1.843.62-.552,1.4-2.083,2.041-2.421.725-.38,1.417,1.109,1.969,1.708A16.748,16.748,0,0,0,357.812,400.037Z" transform="translate(-224.104 -258.549)" fill="#fbbebe"/>
    <path id="Path_969" data-name="Path 969" d="M414.848,165.786a2.071,2.071,0,0,0-.523-1.522,2,2,0,0,0-1.265-.35c-2.459-.08-5,.333-7.321-.493-1.527-.544-2.83-1.59-4.318-2.239s-3.395-.822-4.6.27a6.584,6.584,0,0,0-1.476,3.332,19.534,19.534,0,0,1-3.639,7.22,4.48,4.48,0,0,1-2.488-2.446c-1.792-3.652-.911-8.012.363-11.884.422-1.3.89-2.585,1.358-3.867l1.029-2.834a5.533,5.533,0,0,0,3.525-1.754l.443,1.075a5.609,5.609,0,0,0,3.163-1.118,1.715,1.715,0,0,0,2,.628c.738-.215,1.375-.628,2.109-.843,1.961-.633,4.053.342,6.111.451a24.466,24.466,0,0,1,2.61.076c2.429.392,4.145,2.678,4.888,5.023.493,1.56.9,3.479,2.442,4.032.034.59-1.012.7-1.1,1.265a.97.97,0,0,0,.126.536l1.413,3.032a3.509,3.509,0,0,1-2.041-.1C417.024,164.769,414.911,166.928,414.848,165.786Z" transform="translate(-246.847 -115.539)" fill="#192534"/>
    <path id="Path_970" data-name="Path 970" d="M617.034,186.644a55.4,55.4,0,0,1,1.687,7.055c.3,1.788.481,3.774-.544,5.267,3.905-5.874,7.983-11.926,13.916-15.717a12.706,12.706,0,0,1-3.31-9.8c.034-.354-4.871,1.5-5.246,1.708-1.721.957-3.3,2.146-4.976,3.171-.869.527-4.487,1.775-4.521,2.53,0,.485,1.438,1.969,1.708,2.48A19.255,19.255,0,0,1,617.034,186.644Z" transform="translate(-377.443 -129.797)" fill="#fbbebe"/>
    <path id="Path_971" data-name="Path 971" d="M630.563,725.76a6.537,6.537,0,0,0-6.68-.506c-1.91.987-3.2,2.855-4.934,4.12-2.986,2.168-6.929,2.34-10.425,3.513a3.554,3.554,0,0,0-2.307,1.687,2.994,2.994,0,0,0,.173,2.349,6.081,6.081,0,0,0,2.893,2.982,12.087,12.087,0,0,0,5.111.805l15.1.177a123.65,123.65,0,0,1,13.916.687,5.213,5.213,0,0,0,3.188-.245c1.543-.843,1.721-2.977,1.6-4.736a43.462,43.462,0,0,0-2.952-12.989c-.181-.46-.422-.983-.932-1.067a1.518,1.518,0,0,0-1,.321c-4.259,2.53-9.653,3.96-14.182,1.936" transform="translate(-372.826 -447.355)" fill="#fff"/>
    <path id="Path_972" data-name="Path 972" d="M669.822,500.436c-1.687,9.8-.586,19.863,1.312,29.617a51.639,51.639,0,0,0,1.379,5.752c.679,2.151,1.594,4.217,2.231,6.38,1.619,5.482,1.392,11.344,1.151,17.067l-1.1,26.041a18.887,18.887,0,0,0,.481,6.5c.266.843.59,1.9-.08,2.467a1.881,1.881,0,0,1-.89.342,13.774,13.774,0,0,1-8.856-1.328l-.3-26.306c-.093-8.109-.19-16.253-1.438-24.261-.991-6.368-2.712-12.651-2.826-19.1-.118-6.747,1.535-13.406,3.222-19.947.363-1.4,1.687-2.425,2.775-3.374a3.412,3.412,0,0,1,1.349-.818C668.734,499.335,669.51,500.01,669.822,500.436Z" transform="translate(-404.528 -318.35)" fill="#3f3d56"/>
    <path id="Path_973" data-name="Path 973" d="M669.822,500.436c-1.687,9.8-.586,19.863,1.312,29.617a51.639,51.639,0,0,0,1.379,5.752c.679,2.151,1.594,4.217,2.231,6.38,1.619,5.482,1.392,11.344,1.151,17.067l-1.1,26.041a18.887,18.887,0,0,0,.481,6.5c.266.843.59,1.9-.08,2.467a1.881,1.881,0,0,1-.89.342,13.774,13.774,0,0,1-8.856-1.328l-.3-26.306c-.093-8.109-.19-16.253-1.438-24.261-.991-6.368-2.712-12.651-2.826-19.1-.118-6.747,1.535-13.406,3.222-19.947.363-1.4,1.687-2.425,2.775-3.374a3.412,3.412,0,0,1,1.349-.818C668.734,499.335,669.51,500.01,669.822,500.436Z" transform="translate(-404.528 -318.35)" opacity="0.601"/>
    <path id="Path_974" data-name="Path 974" d="M606.769,423.534c-.624,2.568.7,5.229.552,7.869-.084,1.6-.713,3.192-.422,4.761s1.413,2.75,2.012,4.188a11.36,11.36,0,0,1,.683,3.745c.173,3.154.034,6.326-.084,9.467a93.172,93.172,0,0,0,.35,15.8,49.418,49.418,0,0,0,3.656,13.136,22.771,22.771,0,0,1,1.362,3.538,25.249,25.249,0,0,1,.464,3.433,34.876,34.876,0,0,0,2.982,10.842c1.075,2.349,2.952,4.217,3.547,6.709.565,2.387.186,4.9.595,7.321.3,1.792,1.029,3.487,1.434,5.259a62.472,62.472,0,0,1,.78,7c.759,6.747,3.825,13.495,1.995,20.04-.367,1.316-.936,2.653-.679,3.994a4.982,4.982,0,0,1,.3,1.961,9.287,9.287,0,0,1-.768,1.514,2.782,2.782,0,0,0,.776,2.922,8.305,8.305,0,0,0,2.741,1.619c3.108,1.328,6.326,2.678,9.7,2.648a2.607,2.607,0,0,0,1.193-.219,2.955,2.955,0,0,0,1.164-1.636l1.729-4.276a1.834,1.834,0,0,0,.131-1.607,2.991,2.991,0,0,0-.725-.675c-1.4-1.177-1.08-3.374-.708-5.141a75.024,75.024,0,0,0,1.569-13.79c.185-9.244-1.337-18.433-2.855-27.555a57.416,57.416,0,0,0-2.108-9.392c-1.05-3.036-2.6-5.959-2.345-9.113.27-3.407-.616-6.979,0-10.34s1.59-6.65,2.218-10.007a103.448,103.448,0,0,0,1.265-13.216,12.785,12.785,0,0,1,1.084-5.271c.493-.936,1.21-1.737,1.763-2.644,1.425-2.357,1.653-5.28,3.015-7.675a26.858,26.858,0,0,0,2.007-3.348,9.357,9.357,0,0,0,.514-2.977,35.418,35.418,0,0,0-.422-7.612,49.53,49.53,0,0,0-23.194-5.381,27.516,27.516,0,0,0-9.092,1.43C612.193,421.877,609.679,423.315,606.769,423.534Z" transform="translate(-373.142 -272.064)" fill="#192534"/>
    <path id="Path_975" data-name="Path 975" d="M618.518,744.04c-1.24,1.543-1.155,3.749-1.948,5.567-.961,2.206-3.1,3.618-5.136,4.9l-12.651,8.013a3.527,3.527,0,0,0-1.687,1.725,2.766,2.766,0,0,0,.063,1.514,6.57,6.57,0,0,0,4.42,4.487,13.071,13.071,0,0,0,3.42.35l5.689.076a33.313,33.313,0,0,0,5.191-.2c1.577-.228,3.112-.679,4.681-.966,2.855-.519,5.79-.472,8.649-.974a45.752,45.752,0,0,0,5.179-1.337,20.654,20.654,0,0,0,5.942-2.492,3.083,3.083,0,0,0,1.143-1.231,3.636,3.636,0,0,0-.034-2.231l-2.716-11.934a7.115,7.115,0,0,0-1.063-2.787,2.433,2.433,0,0,0-2.627-.991,5.564,5.564,0,0,0-1.092.658,6.707,6.707,0,0,1-4.82.78,7.594,7.594,0,0,1-3.323-1.185c-.649-.536-.843-1.366-1.4-1.974a3.96,3.96,0,0,0-5.883.232Z" transform="translate(-367.601 -458.965)" fill="#fff"/>
    <circle id="Ellipse_328" data-name="Ellipse 328" cx="15.236" cy="15.236" r="15.236" transform="translate(227.479 24.729)" fill="#fbbebe"/>
    <path id="Path_976" data-name="Path 976" d="M600.029,132.881c1.459-.818,1.459-3.175,2.952-3.96s3.188.578,4.145,1.953a17.96,17.96,0,0,1,2.846,6.693,3.368,3.368,0,0,0,.776,1.906,2.985,2.985,0,0,0,1.847.6q2.889.287,5.786.523c2.151.173,4.42.312,6.372-.611a4.639,4.639,0,0,0,1.915-1.586,7.135,7.135,0,0,0,.818-2.142,50.526,50.526,0,0,0,2.109-11.677,9.428,9.428,0,0,0-.9-4.765,9.676,9.676,0,0,1-1.324-2.5c-.19-.928.422-2.109,1.383-2.007a5.676,5.676,0,0,1-2.53-.481,1.944,1.944,0,0,1-1.059-2.155c-2.142.274-3.7-1.843-5.372-3.213a1.455,1.455,0,0,0-1.021-.422,3.683,3.683,0,0,0-.843.325c-.843.3-1.725-.266-2.589-.51-2.319-.649-5.267.919-6.988-.768.164,1.075-1.156,1.8-2.243,1.775s-2.21-.422-3.239-.059a2.108,2.108,0,0,1-1.206,3.019l.51,1.113A2.876,2.876,0,0,0,599.961,116a28.036,28.036,0,0,0-.287,7.637C599.742,124.641,600.716,132.505,600.029,132.881Z" transform="translate(-369.066 -92.021)" fill="#192534"/>
    <path id="Path_977" data-name="Path 977" d="M609.634,200.264c-7.654,8.607-9.6,20.723-11.234,32.13L596,249.237c-.624,4.369-1.265,8.738-1.809,13.119a34.557,34.557,0,0,0-.32,9.037,49.291,49.291,0,0,0,1.771,6.912,65.18,65.18,0,0,1,2.53,18.34c.51-1.5,2.277-2.109,3.829-2.446a61.916,61.916,0,0,1,38.738,4.137c2.13-5.967,1.729-12.5,2.324-18.8.843-9,3.749-17.712,4.609-26.69.316-3.344.354-6.705.388-10.066a33.693,33.693,0,0,0-.464-7.376,30.958,30.958,0,0,0-3.036-7.591,197.819,197.819,0,0,0-11.521-19.576q-3.18-4.757-6.633-9.324-1.75-2.315-3.572-4.58c-1.177-1.463-1.687-2.733-3.555-1.856C615.744,194.128,612.2,197.375,609.634,200.264Z" transform="translate(-365.67 -140.658)" fill="#e3e3e3"/>
    <path id="Path_978" data-name="Path 978" d="M625.671,376.984a41.329,41.329,0,0,1-5.6-.177,12.142,12.142,0,0,0-4.133,0,4.3,4.3,0,0,0-1.607.789,1.21,1.21,0,0,0,.687,2.109l1.442.127a4.055,4.055,0,0,1,2.581.843,1.611,1.611,0,0,1,.523,1.016c.089.983-.763,1.518-1.527,1.927a12.1,12.1,0,0,0-2.977,1.982,4.124,4.124,0,0,0-1.236,2.53.489.489,0,0,0,.717.451c1.687-.843,2.787-3.344,4.639-2.927a7.515,7.515,0,0,0-4.074,3.133,1.889,1.889,0,0,0,2.53,2.669,8.336,8.336,0,0,0,.793-.527,19.484,19.484,0,0,0,3.344-3.475c-1.349,2.847-2.716,6.178-1.164,9.008a.9.9,0,0,0,.843.5c.489-.051.633-.51.713-.915a12.76,12.76,0,0,1,.957-3.838c1.484-2.691,5.145-2.952,7.932-4.264a12.72,12.72,0,0,0,6.558-8.46,6.5,6.5,0,0,0,.164-3.213c-.62-2.4-3.58-2.952-5.482-1.792C629.968,375.959,628.615,376.891,625.671,376.984Z" transform="translate(-377.321 -245.74)" fill="#fbbebe"/>
    <path id="Path_979" data-name="Path 979" d="M631.742,241.4c2.952,4.559,8.076,7.127,12.47,10.328a10.455,10.455,0,0,1,2.758,2.623,9,9,0,0,1,1.037,5.9,37.392,37.392,0,0,1-1.99,7.759l-1.843,5.5c-1.168,3.492-2.374,7.055-4.6,9.99a4.217,4.217,0,0,0-1.206,2.48,3.207,3.207,0,0,0,.54,1.51,10.155,10.155,0,0,0,6.448,4.605,4.918,4.918,0,0,0,2.425,0,6.569,6.569,0,0,0,2.787-2.142c3.8-4.188,7.591-8.434,10.332-13.347,2.678-4.795,4.28-10.121,5.756-15.4a32.417,32.417,0,0,0,1.265-5.959,21.777,21.777,0,0,0-2.311-11.019,54.373,54.373,0,0,0-6.174-9.548,66.448,66.448,0,0,0-7.232-8.3c-4.588-4.289-10.2-6.811-16.341-4.377-4.335,1.721-5.959,5.309-6.347,9.906A15.072,15.072,0,0,0,631.742,241.4Z" transform="translate(-386.353 -157.361)" opacity="0.1"/>
    <path id="Path_980" data-name="Path 980" d="M635.358,238.724c2.952,4.559,8.08,7.127,12.47,10.328a10.487,10.487,0,0,1,2.745,2.64,9,9,0,0,1,1.037,5.9,37.4,37.4,0,0,1-1.995,7.759l-1.843,5.482c-1.168,3.492-2.374,7.051-4.6,9.99a4.222,4.222,0,0,0-1.2,2.48,3.129,3.129,0,0,0,.54,1.506,10.15,10.15,0,0,0,6.444,4.609,4.934,4.934,0,0,0,2.429,0,6.586,6.586,0,0,0,2.788-2.138c3.8-4.192,7.591-8.434,10.332-13.347,2.678-4.795,4.28-10.121,5.756-15.4a32.08,32.08,0,0,0,1.265-5.955,21.843,21.843,0,0,0-2.307-11.023,53.988,53.988,0,0,0-6.174-9.548,66.492,66.492,0,0,0-7.249-8.253c-4.584-4.285-10.2-6.811-16.337-4.373-4.339,1.721-5.959,5.305-6.351,9.906A15.084,15.084,0,0,0,635.358,238.724Z" transform="translate(-388.434 -155.838)" fill="#e3e3e3"/>
    <path id="Path_981" data-name="Path 981" d="M833.61,608.169a15.6,15.6,0,0,1-.337,3.273c-.042.2-.089.422-.135.595-1.2,4.8-4.576,8.316-8.607,8.54h-.422c-4.263,0-7.869-3.677-9.058-8.742-.034-.135-.063-.27-.093-.422a15.607,15.607,0,0,1-.337-3.273c0-6.861,4.247-12.419,9.488-12.419S833.61,601.32,833.61,608.169Z" transform="translate(-493.437 -374.018)" fill="#262534"/>
    <path id="Path_982" data-name="Path 982" d="M833.633,608.2a15.6,15.6,0,0,1-.337,3.273c-.042.2-.089.422-.135.595h-.422a19.3,19.3,0,0,1-3.1-.422,18.956,18.956,0,0,1-2.766.633,19.335,19.335,0,0,1-2.168.2h-.734a19.571,19.571,0,0,1-2.6-.173,19.047,19.047,0,0,1-4.076-1.012,19.217,19.217,0,0,1-2.2.59c-.034-.135-.063-.27-.093-.422a15.6,15.6,0,0,1-.337-3.272c0-6.861,4.247-12.419,9.488-12.419S833.633,601.349,833.633,608.2Z" transform="translate(-493.46 -374.047)" opacity="0.1"/>
    <path id="Path_983" data-name="Path 983" d="M822.68,532.043a19.2,19.2,0,0,0-2.066-8.691l-11.159,3.471,9.8-5.761a19.285,19.285,0,0,0-14.49-8.257,19.26,19.26,0,0,0-1.505-1.99L787.231,515.8l13.145-7.73a19.285,19.285,0,0,0-30.363,10.286l13.727,15.8-14.891-10.77a19.289,19.289,0,0,0,17.261,34.032,19.365,19.365,0,0,0,12.348.342,19.306,19.306,0,0,0,23.456-18.834c0-.422,0-.843-.042-1.265A19.244,19.244,0,0,0,822.68,532.043Z" transform="translate(-462.266 -321.027)" fill="#5a8462"/>
    <path id="Path_984" data-name="Path 984" d="M822.308,572.785a51.4,51.4,0,0,0-17.855-.228c-6.7,1.109-13.55,3.547-20.1,1.767-3.846-1.046-7.169-3.466-10.926-4.812a20.74,20.74,0,0,0-11.281-.675,19.3,19.3,0,0,0,23.907,25.75,19.365,19.365,0,0,0,12.348.342A19.306,19.306,0,0,0,821.852,576.1c0-.422,0-.843-.042-1.265A19.035,19.035,0,0,0,822.308,572.785Z" transform="translate(-462.226 -358.193)" opacity="0.1"/>
    <path id="Path_965" data-name="Path 965" d="M376.026,225.029a35,35,0,0,0,14.161,8.573,3.18,3.18,0,0,1,1.43.725,2.922,2.922,0,0,1,.595,1.307,74.208,74.208,0,0,1,1.716,12.322,6.864,6.864,0,0,1-.042,2.058,6.493,6.493,0,0,1-1.8,2.83c-2.421,2.594-5.183,5.305-5.592,8.831a14.111,14.111,0,0,1-.24,2.024c-.211.784-.679,1.476-.966,2.239-1.409,3.757,1.775,8.308-.164,11.808a21.313,21.313,0,0,1,2.134,6.435,8.376,8.376,0,0,0,.578,2.48c.578,1.206,1.767,1.974,2.7,2.952,2.855,2.927,3.2,7.405,3.374,11.492.105,2.3.072,4.947-1.687,6.456a7.382,7.382,0,0,1-3.732,1.387c-1.767.3-3.69.506-5.254-.367a8.442,8.442,0,0,1-2.615-2.771c-1.383-2.012-2.771-4.019-4.082-6.081-2.075-3.251-4.032-6.967-3.433-10.779a25.04,25.04,0,0,1-2.906,11.23,15.454,15.454,0,0,1-8.738,7.359,11.209,11.209,0,0,1-10.9-2.4A14.736,14.736,0,0,1,348.235,302a30.582,30.582,0,0,1-3.433-8.734,3.4,3.4,0,0,1,.084-2.4c.19-.337.481-.6.679-.936.666-1.134.025-2.564-.62-3.719-.983.093-1.687-1.063-1.6-2.049a8.65,8.65,0,0,1,1.1-2.741c1.223-2.648.953-5.731.363-8.586s-1.472-5.693-1.4-8.607c.072-3.083-2.146-5.858-3.838-8.434-.945-1.451-2.045-2.8-2.868-4.323a13.946,13.946,0,0,1-1.1-10.442,27.363,27.363,0,0,1,2.311-5.153l1.392-2.61a4.306,4.306,0,0,1,2.952-2.53l9.628-3.8a14.485,14.485,0,0,0,3.475-1.737c1.177-.886,2.054-2.109,3.175-3.053a1.78,1.78,0,0,1,1.265-.552c.9.08,1.223,1.219,1.316,2.109.211,1.99,1.687,3.677,2.189,5.613,2.716,10.69,8.464,20.55,10.041,31.464a114.381,114.381,0,0,1,5.811-12.525,10.4,10.4,0,0,0,.9-1.818,7.759,7.759,0,0,0,.3-2.821,36.9,36.9,0,0,0-1.565-8.08C377.844,231.932,377,228.6,376.026,225.029Z" transform="translate(-216.104 -157.668)" fill="#302f45"/>
  </g>
</svg>
