<svg xmlns="http://www.w3.org/2000/svg" width="147.573" height="60" viewBox="0 0 147.573 60">
  <g id="Group_282" data-name="Group 282" transform="translate(-172.655 -258.355)">
    <path id="Path_1060" data-name="Path 1060" d="M311.772,287.132a56.634,56.634,0,0,1-9.4-.945,24.556,24.556,0,0,0-5.023-.441c-2.649.146-3.257,1.089-2.177,3.362-1.758-.948-2.824-2.493-2.547-3.906.325-1.657,1.607-2.457,3.285-2.737,2.256-.377,4.519.188,6.772.614,2.2.417,4.4.927,6.6,1.277,3.895.618,7.632.567,10.946-1.074v-7.155a1.39,1.39,0,0,0-1.39-1.39H288.388a1.39,1.39,0,0,0-1.39,1.39v30.152a1.39,1.39,0,0,0,1.39,1.39h.188a17.945,17.945,0,0,1-.046-5.121,10.316,10.316,0,0,1,6.643-8.431c1.927-.835,3.993-1.277,5.985-1.926.939-.306,2.227-.439,2.284-1.635.053-1.114-1.081-1.547-1.975-2.036-.265-.145-.657-.169-.772-.727,3.321.342,6.431,1.065,9.051,3.041,1.657,1.251,1.381,2.691-.6,3.461a13.674,13.674,0,0,1-2.478.6c-.783.143-1.579.224-2.373.307-7.562.789-13.1,3.273-15.113,12.472h29.65a1.39,1.39,0,0,0,1.39-1.39V284.3C318.053,286.34,315.113,287.079,311.772,287.132Zm-6.52-10.432a3.309,3.309,0,0,1,4.607-.562,2.959,2.959,0,0,1,.591,4.391,3.372,3.372,0,0,1-4.622.577A3.023,3.023,0,0,1,305.252,276.7ZM316,305.255l-1.978-.977-1.992,1,.394-2.1-1.6-1.474,2.221-.32,1.006-1.914.979,1.9,2.217.291-1.616,1.5Z" fill="#2a9d8f" style="isolation: isolate"/>
    <text id="RSDP" transform="translate(225.655 307.354)" fill="#264653" font-size="45.067" font-family="SegoeUI, Segoe UI" letter-spacing="-0.015em" style="isolation: isolate"><tspan x="-52.855" y="0">RSDP</tspan></text>
  </g>
</svg>
