<svg xmlns="http://www.w3.org/2000/svg" width="109.333" height="140.464" viewBox="0 0 109.333 140.464">
  <g id="Group_413" data-name="Group 413" transform="translate(-628.333 -45.769)">
    <g id="Group_340" data-name="Group 340" transform="translate(207.861 5.461)">
      <g id="Group_339" data-name="Group 339" transform="translate(420.472 153.8)" style="isolation: isolate">
        <path id="Path_1091" data-name="Path 1091" d="M439.133,172.211c3.75.481,5.307,1.442,6.259,5.011.548,2.2,1.067,4.152,1.413,5.216h-6.172c-1.068,0-1.212-.343-1.9-3.5-.808-3.672-1.5-4.325-4.9-4.325-2.221,0-3.346,0-6.807.035.058,3.123.144,5.868.317,7.789h-6.864c.029-3.74.086-7.343.086-12.869,0-5.456-.029-9.163-.086-12.869h15.315c6.317,0,9.663,2.574,9.663,7.824,0,4.5-1.846,6.864-6.317,7.584Zm-4.759-3.157c3.317,0,4.7-1.064,4.7-3.26,0-2.574-1.442-3.226-4.961-3.191-1.384-.035-5.076,0-7.181.1,0,2.126,0,4.221.028,6.279C428.4,169.02,431.316,169.054,434.374,169.054Z" transform="translate(-420.472 -156.082)" fill="#264653"/>
        <path id="Path_1092" data-name="Path 1092" d="M455.493,174.224c0,2.059,1.356,2.848,6.173,2.848,5.047,0,5.941-.755,5.941-2.024,0-1.339-.692-2.265-6.979-2.815-9.085-.858-11.566-3.431-11.566-8.2,0-4.872,3.519-7.961,12.142-7.961,9.259,0,12.374,2.4,12.374,7.446,0,.481-.029.961-.058,1.51-.692-.068-1.875-.1-3.086-.1s-2.422.035-3.143.1v-.685c0-1.614-.894-2.437-6.23-2.437-4.586,0-5.509.687-5.509,1.853,0,1.1.548,1.957,7.268,2.643,8.336.926,11.191,3.157,11.191,8.339,0,5.216-3.317,8.3-12.286,8.3-9.432,0-12.835-2.608-12.835-7.48a12.142,12.142,0,0,1,.086-1.751,26.461,26.461,0,0,0,3.2.207c1.24,0,2.394-.034,3.317-.1Z" transform="translate(-421.029 -156.07)" fill="#264653"/>
        <path id="Path_1093" data-name="Path 1093" d="M490.633,156.7c9.259,0,12.488,3.774,12.488,12.457,0,8.957-3.028,13.28-12.574,13.28H477.51c.086-3.569.086-7.377.086-12.834s0-9.574-.086-12.9Zm5.884,12.594c0-5.078-1.846-6.383-6.057-6.383-2.222,0-4.27.034-6.259.138-.029,2.162-.058,4.564-.058,6.794,0,2.676,0,4.633.028,6.212,2.221.172,3.865.1,6.229.1C494.556,176.158,496.518,174.648,496.518,169.294Z" transform="translate(-421.591 -156.082)" fill="#264653"/>
        <path id="Path_1094" data-name="Path 1094" d="M521.341,156.7c6.374,0,10.153,2.265,10.153,9.643,0,6.931-3.548,10.123-10.211,10.123-2.827,0-4.875.034-7.931-.1.028,2.368.116,4.426.2,6.074H506.6c.086-3.706.115-7.377.115-12.869,0-5.456-.028-9.3-.115-12.869ZM525,166.446c0-2.745-1.413-3.673-4.845-3.673-1.414,0-4.9,0-6.865.069v7.413c1.356,0,3.952.034,6.749.034C523.736,170.289,525,169.191,525,166.446Z" transform="translate(-422.161 -156.082)" fill="#264653"/>
      </g>
      <path id="Path_1095" data-name="Path 1095" d="M501.987,81.092c-10.338.164-20.641-1.537-30.941-3.111-5.5-.84-11.009-1.754-16.525-1.45-8.716.478-10.718,3.581-7.165,11.061-5.784-3.119-9.291-8.2-8.379-12.853,1.069-5.452,5.287-8.082,10.808-9,7.424-1.24,14.871.618,22.284,2.021,7.245,1.372,14.459,3.05,21.724,4.2,12.816,2.032,25.11,1.865,36.014-3.535V44.881a4.572,4.572,0,0,0-4.573-4.573H425.044a4.572,4.572,0,0,0-4.572,4.573v99.212a4.572,4.572,0,0,0,4.572,4.573h.62a58.9,58.9,0,0,1-.152-16.848c1.839-13.167,9.271-22.288,21.858-27.743,6.34-2.747,13.137-4.2,19.694-6.336,3.09-1.006,7.327-1.446,7.515-5.38.174-3.664-3.557-5.091-6.5-6.7-.874-.477-2.162-.555-2.541-2.393,10.929,1.126,21.163,3.5,29.78,10.008,5.455,4.117,4.544,8.854-1.956,11.387a44.779,44.779,0,0,1-8.155,1.956c-2.574.473-5.2.739-7.807,1.012-24.883,2.6-43.087,10.77-49.726,41.037h97.558a4.572,4.572,0,0,0,4.573-4.573V71.778C522.652,78.485,512.978,80.919,501.987,81.092ZM480.535,46.765a10.884,10.884,0,0,1,15.157-1.848c4.9,3.638,5.742,9.857,1.946,14.449a11.1,11.1,0,0,1-15.208,1.9A9.95,9.95,0,0,1,480.535,46.765Zm35.37,93.959L509.4,137.51l-6.554,3.3,1.3-6.906-5.249-4.851L506.2,128l3.309-6.3,3.223,6.255,7.294.959-5.318,4.92Z" fill="#2a9d8f" style="isolation: isolate"/>
    </g>
  </g>
</svg>
