<svg xmlns="http://www.w3.org/2000/svg" width="190.54" height="61.257" viewBox="0 0 190.54 61.257">
  <g id="Layer_2" data-name="Layer 2" transform="translate(0 0.005)">
    <g id="Layer_1" data-name="Layer 1" transform="translate(0 -0.005)">
      <path id="Path_1023" data-name="Path 1023" d="M100.37,61.07c15.153,0,27.4-13.579,27.4-30.305S115.5.46,100.37.46Z" transform="translate(16.619 0.082)" fill="#fff"/>
      <rect id="Rectangle_166" data-name="Rectangle 166" width="20.328" height="60.995" transform="translate(93.153 0.169)" fill="#fff"/>
      <path id="Path_1024" data-name="Path 1024" d="M147.69,35.866A17.938,17.938,0,1,0,147.69,0Z" transform="translate(24.455 0.005)" fill="#fff"/>
      <rect id="Rectangle_167" data-name="Rectangle 167" width="18.731" height="61.251" transform="translate(150.22 0.006)" fill="#fff"/>
      <path id="Path_1025" data-name="Path 1025" d="M19.07,35.866A17.938,17.938,0,1,0,19.07,0Z" transform="translate(3.158 0.005)" fill="#fff"/>
      <rect id="Rectangle_168" data-name="Rectangle 168" width="18.731" height="60.96" transform="translate(0 0.029)" fill="#fff"/>
      <path id="Path_1026" data-name="Path 1026" d="M19.128,33.77V55.053H19.07v.35H37.008Z" transform="translate(3.158 5.597)" fill="#fff"/>
      <path id="Path_1027" data-name="Path 1027" d="M47.863,40.015C38.539,31.04,37.851,15.829,47.2,6.854a24.617,24.617,0,0,1,33.8,0Z" transform="translate(6.709 0.028)" fill="#fff"/>
      <path id="Path_1028" data-name="Path 1028" d="M39.17,51.359a24.617,24.617,0,0,0,33.8,0C82.3,42.4,81.644,27.173,72.307,18.21Z" transform="translate(6.486 3.021)" fill="#fff"/>
    </g>
  </g>
</svg>
