<svg xmlns="http://www.w3.org/2000/svg" width="118.816" height="38.198" viewBox="0 0 118.816 38.198">
  <g id="Layer_2" data-name="Layer 2" transform="translate(0 0.005)">
    <g id="Layer_1" data-name="Layer 1" transform="translate(0 -0.005)">
      <path id="Path_1023" data-name="Path 1023" d="M100.37,38.255c9.449,0,17.088-8.468,17.088-18.9S109.8.46,100.37.46Z" transform="translate(-27.418 -0.122)" fill="#264653"/>
      <rect id="Rectangle_166" data-name="Rectangle 166" width="12.676" height="38.035" transform="translate(58.088 0.105)" fill="#264653"/>
      <path id="Path_1024" data-name="Path 1024" d="M147.69,22.363A11.186,11.186,0,1,0,147.69,0Z" transform="translate(-40.345 0.005)" fill="#264653"/>
      <rect id="Rectangle_167" data-name="Rectangle 167" width="11.68" height="38.195" transform="translate(93.673 0.004)" fill="#264653"/>
      <path id="Path_1025" data-name="Path 1025" d="M19.07,22.363A11.186,11.186,0,1,0,19.07,0Z" transform="translate(-5.209 0.005)" fill="#264653"/>
      <rect id="Rectangle_168" data-name="Rectangle 168" width="11.68" height="38.013" transform="translate(0 0.018)" fill="#264653"/>
      <path id="Path_1026" data-name="Path 1026" d="M19.106,33.77V47.042H19.07v.218H30.256Z" transform="translate(-5.209 -9.221)" fill="#264653"/>
      <path id="Path_1027" data-name="Path 1027" d="M45.1,25c-5.815-5.6-6.243-15.082-.414-20.678a15.351,15.351,0,0,1,21.078,0Z" transform="translate(-11.069 -0.033)" fill="#264653"/>
      <path id="Path_1028" data-name="Path 1028" d="M39.17,38.881a15.351,15.351,0,0,0,21.078,0c5.815-5.589,5.408-15.082-.414-20.671Z" transform="translate(-10.7 -4.971)" fill="#264653"/>
    </g>
  </g>
</svg>
