<svg xmlns="http://www.w3.org/2000/svg" width="337.73" height="303.172" viewBox="0 0 337.73 303.172">
  <g id="Group_208" data-name="Group 208" transform="translate(0 0)">
    <path id="Path_1036" data-name="Path 1036" d="M652.212,310.1a.591.591,0,0,1-.338-.106L488.01,195.876a2.972,2.972,0,0,0-3.394.006L321.933,309.994a.593.593,0,1,1-.681-.97L483.935,194.912a4.161,4.161,0,0,1,4.752-.008L652.551,309.023a.593.593,0,0,1-.339,1.079Z" transform="translate(-317.445 -194.163)" fill="#3f3d56"/>
    <path id="Path_1037" data-name="Path 1037" d="M23.264,123.374,178.508,8.319,334.931,131.561,186.507,219.548l-80.581-18.368Z" transform="translate(-9.48 -3.39)" fill="#e6e6e6"/>
    <path id="Path_1038" data-name="Path 1038" d="M434.045,645.775H357.351a3.583,3.583,0,0,1,0-7.166h76.694a3.583,3.583,0,0,1,0,7.166Z" transform="translate(-330.798 -375.271)" fill="#2a9d8f"/>
    <path id="Path_1039" data-name="Path 1039" d="M384.867,619.775H357.351a3.583,3.583,0,0,1,0-7.166h27.516a3.583,3.583,0,0,1,0,7.166Z" transform="translate(-330.798 -364.676)" fill="#2a9d8f"/>
    <path id="Path_1040" data-name="Path 1040" d="M536.944,388.9a4.482,4.482,0,0,1-1.7-.333L439.5,348.837V224.485a4.152,4.152,0,0,1,4.148-4.148H627.326a4.152,4.152,0,0,1,4.148,4.148V348.924l-.18.077-92.6,39.544A4.513,4.513,0,0,1,536.944,388.9Z" transform="translate(-365.733 -204.829)" fill="#fff"/>
    <path id="Path_1041" data-name="Path 1041" d="M536.74,388.989a4.782,4.782,0,0,1-1.813-.355L439,348.831V224.281a4.449,4.449,0,0,1,4.444-4.444H627.122a4.449,4.449,0,0,1,4.444,4.444V348.916l-92.957,39.7A4.806,4.806,0,0,1,536.74,388.989Zm-96.555-40.95,95.194,39.5a3.625,3.625,0,0,0,2.766-.017l92.235-39.389V224.281a3.263,3.263,0,0,0-3.259-3.259H443.444a3.263,3.263,0,0,0-3.259,3.259Z" transform="translate(-365.529 -204.625)" fill="#3f3d56"/>
    <path id="Path_1042" data-name="Path 1042" d="M648.582,387.837h-.119l-68.02,29.045-93.065,39.74a3,3,0,0,1-2.3.012L389.064,416.8l-69.691-28.914-.106-.047h-.119A4.152,4.152,0,0,0,315,391.985V572.108a4.152,4.152,0,0,0,4.148,4.148H648.582a4.152,4.152,0,0,0,4.148-4.148V391.985A4.152,4.152,0,0,0,648.582,387.837Zm2.962,184.27a2.964,2.964,0,0,1-2.962,2.963H319.148a2.964,2.964,0,0,1-2.963-2.963V391.985a2.969,2.969,0,0,1,2.85-2.963l70.029,29.057,95.56,39.651a4.219,4.219,0,0,0,3.223-.018l92.6-39.544L648.7,389.022a2.972,2.972,0,0,1,2.844,2.963Z" transform="translate(-315 -273.083)" fill="#3f3d56"/>
    <path id="Path_1043" data-name="Path 1043" d="M565.671,363.137a16.293,16.293,0,0,1-9.8-3.257l-.175-.132-36.92-28.267a16.4,16.4,0,1,1,19.952-26.04l23.914,18.337,56.512-73.7a16.4,16.4,0,0,1,23-3.036l-.351.477.36-.47a16.421,16.421,0,0,1,3.036,23L578.72,356.736A16.409,16.409,0,0,1,565.671,363.137Z" transform="translate(-410.704 -210.608)" fill="#2a9d8f"/>
  </g>
</svg>
