<svg xmlns="http://www.w3.org/2000/svg" xmlns:xlink="http://www.w3.org/1999/xlink" viewBox="0 0 512.6 503.96"><defs><style>.cls-1{fill:none;}.cls-2{fill:#0c4b6f;}.cls-3{isolation:isolate;}.cls-4{clip-path:url(#clip-path);}.cls-5{fill:#0d5177;}.cls-6{fill:#19a2ee;}.cls-7{clip-path:url(#clip-path-2);}.cls-8{fill:#018c55;}</style><clipPath id="clip-path" transform="translate(-0.12 -3.4)"><path class="cls-1" d="M.12,255.93a173.46,173.46,0,0,1,1-22.79C2,227,2.76,218.79,3.83,212.7c1.16-6.6,3-15.35,4.75-21.83,1.53-5.83,3.87-13.54,5.89-19.22,2.23-6.29,5.75-14.47,8.26-20.66A171.82,171.82,0,0,1,33.07,130.6c5.91-10,14.61-22.82,21.5-32.16A168.89,168.89,0,0,1,70,80.51c4-3.94,9.11-9.38,13.29-13.1,5.87-5.22,14-11.87,20.18-16.69,9.48-7.35,19.06-12.91,29.19-18.81a210.72,210.72,0,0,1,26.5-12.72c5.35-2.08,12.52-4.81,18-6.58s13.09-3.87,18.77-5.3a254.61,254.61,0,0,1,33-5.82A251.45,251.45,0,0,1,258.39,0a256.23,256.23,0,0,1,35.42,2.74c5.69.81,12.29,2.08,15.34,2.73,5.21,1.12,12.1,2.88,17.25,4.26a246.71,246.71,0,0,1,30.19,10.67c8.1,3.39,18.47,8.87,26.23,13C445.4,69,486.64,139.23,486.48,225.42,486.23,361.36,383,485.43,256,502.51,383,485.43,486.23,361.36,486.48,225.42c.16-86.19-41.08-156.46-103.66-192,6.07,3.55,14.2,8.31,19.84,12.51,4.25,3.16,10,7.21,14.13,10.56,5.16,4.22,12.06,9.86,16.71,14.63,3.95,4.06,9.39,9.3,13.16,13.53,4.39,4.91,10,11.64,14,16.89a251.85,251.85,0,0,1,22.17,34.62,257.73,257.73,0,0,1,16.46,38.15c3.91,11.49,7.53,27.33,9.86,39.25,1.29,6.62,2.19,15.58,2.75,22.3.51,6.27.6,14.66.8,20.94a185.07,185.07,0,0,1-1.3,25.45c-.74,6.13-1.75,14.31-2.88,20.38-1.22,6.58-3.19,15.3-5,21.76-1.59,5.8-4,13.47-6.08,19.13-2.3,6.26-5.89,14.41-8.48,20.57a181.52,181.52,0,0,1-9,17.51c-3.36,5.9-8.31,13.49-11.95,19.23a201.25,201.25,0,0,1-14.61,19.34,272.15,272.15,0,0,1-25.92,26.9c-6,5.22-14.22,11.84-20.55,16.62-4.13,3.12-9.95,6.86-14.3,9.69-.14.09-16,9.95-28.83,15.66a250,250,0,0,1-38,14,255.87,255.87,0,0,1-169.66-10.77c-23.37-9.84-43.22-23.17-48.9-27.48-5.42-4.11-12.84-9.38-17.85-14-4.1-3.78-9.74-8.67-13.67-12.62-4.67-4.7-10.68-11.18-15-16.21-7.54-8.78-16.29-21.56-22.69-31.21a220.43,220.43,0,0,1-10.76-19.24,188.76,188.76,0,0,1-9-19.84c-4.08-11.34-9.19-26.62-12-38.35C3.93,302.55,2.14,287.86.92,276.86.23,270.61.22,262.21.12,255.93Z"/></clipPath><clipPath id="clip-path-2" transform="translate(-0.12 -3.4)"><path class="cls-1" d="M130,479.28c-4.44-2.58-10.36-6-14.59-8.95-6.73-4.64-15.55-11.08-21.93-16.19-8.73-7-19.23-17.65-27-25.71a173.19,173.19,0,0,1-15.59-18.91c-3.88-5.59-9.15-13-12.77-18.77-3.12-5-6.91-11.87-9.65-17.07-3.11-5.89-6.76-14-9.32-20.16-2.3-5.54-4.79-13.14-6.85-18.77a160.08,160.08,0,0,1-5.85-21.43A362.55,362.55,0,0,1,.62,272.64c-.78-11.26-1-26.43.38-37.64.82-6.69,1.43-15.7,2.83-22.3,1.27-6,2.71-14,4.25-19.9a203.59,203.59,0,0,1,6.39-21.15c2.18-5.55,4.87-13.05,7.3-18.49,2.69-6,6.57-14,9.75-19.79A258.37,258.37,0,0,1,54.57,98.44c7.18-8.68,17.05-20.06,25.25-27.78,4.91-4.63,11.72-10.51,17-14.77,4.07-3.31,9.69-7.52,14.06-10.45,5.86-3.92,13.85-8.9,19.94-12.47,3.86-2.27,9.15-5,13.21-6.95A249.74,249.74,0,0,1,187.47,9.51a254.84,254.84,0,0,1,99.87-7.62A259.14,259.14,0,0,1,336.94,13a253.26,253.26,0,0,1,26,10.25c6.11,2.72,14,7,19.84,10.16C346.67,12.86,303.39,3.91,256.87,10.17c46.52-6.26,89.8,2.69,126,23.23,8.91,5.47,20.85,12.76,29.06,19.23C417.55,57.1,425,63.26,430.3,68.1c4.19,3.79,9.56,9.09,13.36,13.27,4.74,5.2,10.87,12.31,15.23,17.83,3.6,4.55,8.09,10.88,11.3,15.72,3.73,5.61,8.34,13.34,11.59,19.25,2.85,5.19,6.19,12.35,8.74,17.69,2.87,6,6,14.34,8.16,20.61,2,5.7,4.08,13.48,5.82,19.26a149,149,0,0,1,4.66,21.81c.78,6.14,2.09,14.29,2.59,20.46.56,6.81,1,15.94,1,22.78,0,12.46-1.6,29.07-3.41,41.4a183.8,183.8,0,0,1-5.21,24.24c-5.84,19.31-8.51,28.12-14.08,39.47-2.6,5.3-5.94,12.44-8.8,17.6-3.18,5.72-7.68,13.2-11.3,18.65a249.57,249.57,0,0,1-25.55,32.39,255.94,255.94,0,0,1-30.3,27.83c-4.12,3.22-9.72,7.37-14.07,10.25-5.92,3.9-14,8.79-20.16,12.34-9.87,5.71-26.27,12.65-29,13.7-5.54,2.11-13,4.79-18.65,6.54-5.48,1.7-12.87,3.67-18.47,5a255.86,255.86,0,0,1-137.78-6.46,239.39,239.39,0,0,1-26-10.25C143.74,486.72,135.79,482.63,130,479.28Z"/></clipPath></defs><title>Asset 23</title><g id="Layer_2" data-name="Layer 2"><g id="Logo1"><polygon class="cls-2" points="480.91 172.49 488.75 177.3 491.41 232.44 481.16 239.27 480.91 172.49"/><g class="cls-3"><g class="cls-3"><g class="cls-4"><path class="cls-5" d="M420,60.91A193,193,0,0,0,382.82,33.4c-16.45-8.72-18.56-9.84-32.92-15.72l-6-2.26C312.6,4.11,256.12,0,208.34,6.45a203.06,203.06,0,0,0-36,7.79c-4,1.45-9.23,3.38-13.13,5-12.77,5.68-24.84,11-41.39,21.62C100.4,52.86,97.27,55,83.3,67.41l-.68.63c14-13,46.78-24.29,94.07-30.65C266.85,25.27,375.77,35.8,420,60.91" transform="translate(-0.12 -3.4)"/><path class="cls-6" d="M420,60.91a58.77,58.77,0,0,1,11,7.82l-.68-.63c-16.77-14.43-25.19-21.68-47.48-34.7A193,193,0,0,1,420,60.91" transform="translate(-0.12 -3.4)"/><path class="cls-5" d="M483.49,265.17a273.69,273.69,0,0,0,3-39.75,253.54,253.54,0,0,0-4.59-49c-61-34.67-211.42-49.22-335.9-32.48-84.11,11.31-134.86,34-140.11,58.24l-2,10.56C.34,239.43.2,240.47.12,255.93,1.18,283.49,1.2,284,3.57,298.56-.94,271.44,51.64,245,145,232.44c125.45-16.87,277-2.22,338.53,32.73" transform="translate(-0.12 -3.4)"/><path class="cls-2" d="M484.7,225.59c0,13.4.73,26.5-1.21,39.58,11.69,7.38,27.7,17.49,25.61,34.22,3.48-27.14,3.55-27.66,3.61-42.61-1.06-27.69-1.08-28.22-3.55-43.24l-2-10.56c-1.9-9-10.12-18-25.26-26.6,3,15.63,2.84,32.2,2.81,49.21" transform="translate(-0.12 -3.4)"/><path class="cls-5" d="M363.31,459.73a285.75,285.75,0,0,0,62.47-60c-45.95-26.11-159.16-37.06-252.87-24.45-83,11.15-122.83,37-99,60.93,5.79,5.46,13.5,12.73,19.56,17.88,17.21,13.21,19.85,15.24,36.52,25.14,17.4,9.23,17.4,9.23,26.52,13.1a73,73,0,0,1-7.81-3.79c-29.05-16.51-4.57-36.35,54.69-44.32s130.85-1,159.91,15.46" transform="translate(-0.12 -3.4)"/><path class="cls-2" d="M363.31,459.73c19.4,11,14.93,23.54-7.83,33,15.11-6.85,19.66-8.92,37.24-19.37,17.43-11.81,20.58-13.94,34.85-26.31L438.19,437c12-11.94,8.82-25.12-12.41-37.18a285.75,285.75,0,0,1-62.47,60" transform="translate(-0.12 -3.4)"/></g></g><g class="cls-3"><g class="cls-7"><path class="cls-6" d="M349.9,17.68c17.52,7.45,19,8.06,32.92,15.72A191.54,191.54,0,0,0,355.7,20.7a76.78,76.78,0,0,0-11.78-5.28l6,2.26" transform="translate(-0.12 -3.4)"/><path class="cls-6" d="M382.82,33.4c16.93,10.39,28.12,17.26,47.48,34.7l.68.63c25,23.27-13.24,48.72-94.2,59.61-90.16,12.12-199.07,1.59-243.28-23.53-21-11.94-23.62-25-10.88-36.77l.68-.63c17-14.49,19.13-16.35,34.48-26.6,11.57-7,23.53-14.2,41.39-21.62,3.92-1.52,9.16-3.55,13.13-5-27,8.94-34.1,21.83-14.35,33.05,26.78,15.22,92.75,21.6,147.36,14.25S382.48,35.91,355.7,20.7a191.54,191.54,0,0,1,27.12,12.7" transform="translate(-0.12 -3.4)"/><path class="cls-6" d="M509.16,213.54c3.39,26.75,3.52,27.79,3.55,43.24-1.16,27.54-1.18,28.07-3.61,42.61C482.46,385.47,39.43,388.6,4.8,303c-.51-1.27-.86-3.08-1.23-4.4C.19,271.41.12,270.89.12,255.93c1.16-27.68,1.19-28.21,3.71-43.23l2.05-10.56C3.36,213.77,11.32,225.75,31.12,237c61,34.68,211.43,49.22,335.9,32.48,93.62-12.59,145.92-39.28,140.13-66.5l2,10.56" transform="translate(-0.12 -3.4)"/><path class="cls-6" d="M427.57,447.05c-16.67,14-19.23,16.1-34.85,26.31-15.3,9-18.94,11.15-37.24,19.37-11.32,4.72-27.17,8.67-46.86,11.32-54.49,7.33-119.41,2.06-152.1-11.67-17.41-8-17.74-8.13-26.52-13.1-17.5-10.74-21.14-13-36.52-25.14-6-5.27-13.89-12.31-19.56-17.88a58.07,58.07,0,0,0,12.51,9.15c45.95,26.11,159.16,37.06,252.88,24.45,50.42-6.78,84.92-19,98.88-32.9l-10.62,10.09" transform="translate(-0.12 -3.4)"/></g></g></g><polygon class="cls-2" points="420.36 393.57 431.22 399.83 367.04 458.75 360.17 454.72 420.36 393.57"/><path class="cls-8" d="M332.63,102.5c-21.38,0-41.43-3.34-43.43-6.69-2-4-.67-6.68,3.34-6.68,4.68,0,15.37-6,24.73-13.36s14.7-13.37,12-13.37c-1.78,0-1.47-1.9.3-5-30.11,7.64-67,7.62-91.71,6.39-.72,1-1.43,2.09-2.14,3.25-17.38,26.06-36.76,42.77-44.11,38.75-3.34-2.66-10.69-.66-16.7,3.35-7.26,6.59-8,10.59-1.57,18.43,15,2.18,113,15.1,200.81-6C383.38,108.4,370.34,102.5,332.63,102.5ZM185,122.54c-3.34,0-4.68-3.34-2.67-6.68,2-4,5.34-6.68,7.35-6.68,1.34,0,2.67,2.67,2.67,6.68C192.3,119.2,189,122.54,185,122.54Zm260,209.84c-4-10.7-8-22.72-8-26.07-.67-8.68-19.38-26.73-36.75-36.75a27.78,27.78,0,0,1-5.48-4.1c-16,3.33-55.46,10.22-112.76,11.18,1,4.8,4.44,11.44,9.31,16.31,12,14,12,36.75-1.33,44.76-4,2.69-18.71,3.35-32.08,1.35-15.37-1.35-25.39,0-25.39,4s3.34,5.35,6.68,3.35c12-7.35,7.35,2.67-8,16.71l-2.36,2.26q19.68.42,41.69.07s105.24.84,178.14-23.54A86.83,86.83,0,0,0,444.9,332.38ZM222.54,474.21c-6,5.37-10.19,11-10.19,15.21,0,2.21-7.33,8.08-17.06,13.83,16.49,2.83,40.5,4.54,75.35,3.89h0a40,40,0,0,0,3.85-3.69c8.68-10.7,18-12,57.47-10,7.65.38,14.89.55,21.31.49h0c61-20.15,84.38-56.18,84.87-57C381,479.67,252.28,475.74,222.54,474.21Z" transform="translate(-0.12 -3.4)"/><path class="cls-8" d="M189,297.63c-14,6-16.71,12-16.71,34.08a196.08,196.08,0,0,1-2.92,30.49c-98.09-8.74-135-31.3-135-31.3C10.15,320,3.82,301.41,2.21,291.08c5.37-5.44,13.83-6.27,32.39-4.14,16.7,1.33,32.07,0,34.08-4,2-3.35.66-6.69-3.35-6.69-6.57,0-.16-10.79,9.62-21.45,38.45,11,83.22,14.79,83.22,14.79q24.29,3.1,46.61,4.73C206,284.31,200.59,292.41,189,297.63Z" transform="translate(-0.12 -3.4)"/><path class="cls-8" d="M438.17,437c-.49.78-23.84,36.81-84.87,57h0c-6.42.06-13.66-.11-21.31-.49-39.43-2-48.79-.68-57.47,10a40,40,0,0,1-3.85,3.69h0c-34.85.65-58.86-1.06-75.35-3.89,9.73-5.75,17.06-11.62,17.06-13.83,0-4.22,4.15-9.84,10.19-15.21C252.28,475.74,381,479.67,438.17,437Z" transform="translate(-0.12 -3.4)"/></g></g></svg>